<svg width="37" height="36" viewBox="0 0 37 36" fill="none" xmlns="http://www.w3.org/2000/svg">
<path d="M33 23.25C33.42 23.25 33.75 23.58 33.75 24V25.5C33.75 27.99 31.74 30 29.25 30C29.25 27.525 27.225 25.5 24.75 25.5C22.275 25.5 20.25 27.525 20.25 30H17.25C17.25 27.525 15.225 25.5 12.75 25.5C10.275 25.5 8.25 27.525 8.25 30C5.76 30 3.75 27.99 3.75 25.5V22.5C3.75 21.675 4.425 21 5.25 21H19.5C21.57 21 23.25 19.32 23.25 17.25V9C23.25 8.175 23.925 7.5 24.75 7.5H26.01C27.09 7.5 28.08 8.085 28.62 9.015L29.58 10.695C29.715 10.935 29.535 11.25 29.25 11.25C27.18 11.25 25.5 12.93 25.5 15V19.5C25.5 21.57 27.18 23.25 29.25 23.25H33Z" fill="#16AD64"/>
<path d="M12.75 33C14.4069 33 15.75 31.6569 15.75 30C15.75 28.3431 14.4069 27 12.75 27C11.0931 27 9.75 28.3431 9.75 30C9.75 31.6569 11.0931 33 12.75 33Z" fill="#16AD64"/>
<path d="M24.75 33C26.4069 33 27.75 31.6569 27.75 30C27.75 28.3431 26.4069 27 24.75 27C23.0931 27 21.75 28.3431 21.75 30C21.75 31.6569 23.0931 33 24.75 33Z" fill="#16AD64"/>
<path d="M33.75 18.795V21H29.25C28.425 21 27.75 20.325 27.75 19.5V15C27.75 14.175 28.425 13.5 29.25 13.5H31.185L33.36 17.31C33.615 17.76 33.75 18.27 33.75 18.795Z" fill="#16AD64"/>
<path d="M20.37 3H9.285C6.225 3 3.75 5.475 3.75 8.535V18.105C3.75 18.93 4.425 19.605 5.25 19.605H18.975C20.505 19.605 21.75 18.36 21.75 16.83V4.38C21.75 3.615 21.135 3 20.37 3ZM15.855 10.605L12.72 13.635C12.495 13.845 12.21 13.95 11.94 13.95C11.655 13.95 11.37 13.845 11.16 13.635L9.645 12.195C9.195 11.76 9.18 11.04 9.615 10.59C10.035 10.14 10.755 10.14 11.205 10.56L11.94 11.265L14.295 8.985C14.745 8.55 15.45 8.565 15.885 9.015C16.32 9.465 16.305 10.17 15.855 10.605Z" fill="#16AD64"/>
</svg>
