<svg width="40" height="40" viewBox="0 0 40 40" fill="none" xmlns="http://www.w3.org/2000/svg">
<path d="M29.3335 8.85144L19.9168 3.78478C19.4274 3.52219 18.8806 3.38477 18.3252 3.38477C17.7697 3.38477 17.2229 3.52219 16.7335 3.78478L7.33351 8.85144C6.65018 9.23478 6.21684 9.96811 6.21684 10.7681C6.21684 11.5848 6.63351 12.3181 7.33351 12.6848L16.7502 17.7514C17.2366 18.014 17.7807 18.1515 18.3335 18.1515C18.8863 18.1515 19.4304 18.014 19.9168 17.7514L29.3335 12.6848C30.0168 12.3181 30.4502 11.5848 30.4502 10.7681C30.4502 9.96811 30.0168 9.23478 29.3335 8.85144ZM15.2002 19.5164L6.45017 15.1498C6.12289 14.983 5.75822 14.903 5.39116 14.9177C5.0241 14.9324 4.66697 15.0412 4.35406 15.2336C4.04114 15.4261 3.78294 15.6957 3.60423 16.0166C3.42551 16.3376 3.33229 16.6991 3.33351 17.0664V25.3331C3.33351 26.7664 4.13351 28.0498 5.41684 28.6998L14.1668 33.0664C14.4668 33.2164 14.8002 33.2998 15.1335 33.2998C15.5168 33.2998 15.9168 33.1831 16.2668 32.9831C16.9002 32.5831 17.2835 31.8998 17.2835 31.1498V22.8831C17.2668 21.4498 16.4668 20.1664 15.2002 19.5164ZM33.3335 17.0664V21.1664C32.5335 20.9331 31.6835 20.8331 30.8335 20.8331C28.5668 20.8331 26.3502 21.6164 24.6002 23.0164C22.2002 24.8998 20.8335 27.7498 20.8335 30.8331C20.8335 31.6498 20.9335 32.4664 21.1502 33.2498C20.9002 33.2164 20.6502 33.1164 20.4168 32.9664C19.7835 32.5831 19.4002 31.8998 19.4002 31.1498V22.8831C19.4002 21.4498 20.2002 20.1664 21.4668 19.5164L30.2168 15.1498C30.5441 14.983 30.9088 14.903 31.2759 14.9177C31.6429 14.9324 32 15.0412 32.313 15.2336C32.6259 15.4261 32.8841 15.6957 33.0628 16.0166C33.2415 16.3376 33.3347 16.6991 33.3335 17.0664Z" fill="#2C3E50"/>
<path d="M36.1353 25.5328C35.4288 24.8225 34.5867 24.2617 33.659 23.8838C32.7312 23.5058 31.7369 23.3184 30.7353 23.3328C28.8519 23.3495 26.9686 24.0995 25.5353 25.5328C24.5353 26.5161 23.8853 27.7495 23.5686 29.0328C23.3853 29.7328 23.3186 30.4495 23.3686 31.1661V31.2495C23.3686 31.3661 23.3853 31.4661 23.4019 31.5995L23.4186 31.6161V31.6661C23.5686 33.2995 24.2686 34.8828 25.5353 36.1328C26.447 37.0475 27.5807 37.7097 28.8254 38.0545C30.07 38.3992 31.3828 38.4147 32.6353 38.0995C33.3686 37.9161 34.0853 37.6161 34.7519 37.2161C35.2519 36.9328 35.7186 36.5661 36.1353 36.1328C37.3853 34.8828 38.1019 33.2995 38.2519 31.6495C38.2686 31.6495 38.2686 31.6161 38.2686 31.5995C38.3019 31.4828 38.3019 31.3495 38.3019 31.2328C38.3019 31.2161 38.3186 31.1828 38.3186 31.1495C38.4186 29.1328 37.6853 27.0661 36.1353 25.5328ZM33.7186 33.6828C33.2353 34.1661 32.4519 34.1661 31.9519 33.6828L30.8519 32.5828L29.7186 33.7161C29.2186 34.2161 28.4353 34.2161 27.9519 33.7161C27.4519 33.2328 27.4519 32.4495 27.9519 31.9495L29.0853 30.8161L27.9853 29.7161C27.7528 29.4809 27.6224 29.1635 27.6224 28.8328C27.6224 28.5021 27.7528 28.1847 27.9853 27.9495C28.4853 27.4495 29.2686 27.4495 29.7686 27.9495L30.8519 29.0495L31.9019 27.9828C32.4019 27.4995 33.1853 27.4995 33.6853 27.9828C34.1686 28.4828 34.1686 29.2661 33.6853 29.7661L32.6186 30.8161L33.7186 31.8995C34.2186 32.3995 34.2186 33.1828 33.7186 33.6828Z" fill="#2C3E50"/>
</svg>
