<svg width="37" height="36" viewBox="0 0 37 36" fill="none" xmlns="http://www.w3.org/2000/svg">
<path d="M22.2746 3H15.2246C13.6646 3 12.3896 4.26 12.3896 5.82V7.23C12.3896 8.79 13.6496 10.05 15.2096 10.05H22.2746C23.8346 10.05 25.0946 8.79 25.0946 7.23V5.82C25.1096 4.26 23.8346 3 22.2746 3Z" fill="#B8B800"/>
<path d="M26.6096 7.23021C26.6096 9.61521 24.6596 11.5652 22.2746 11.5652H15.2246C12.8396 11.5652 10.8896 9.61521 10.8896 7.23021C10.8896 6.39021 9.98957 5.86521 9.23957 6.25521C7.12457 7.38021 5.68457 9.61521 5.68457 12.1802V26.2952C5.68457 29.9852 8.69957 33.0002 12.3896 33.0002H25.1096C28.7996 33.0002 31.8146 29.9852 31.8146 26.2952V12.1802C31.8146 9.61521 30.3746 7.38021 28.2596 6.25521C27.5096 5.86521 26.6096 6.39021 26.6096 7.23021ZM24.3746 25.5002C24.3746 26.1152 23.8646 26.6252 23.2496 26.6252H18.7496C18.1346 26.6252 17.6246 26.1152 17.6246 25.5002C17.6246 24.8852 18.1346 24.3752 18.7496 24.3752H20.5346L13.4546 17.2952C13.0196 16.8602 13.0196 16.1402 13.4546 15.7052C13.8896 15.2702 14.6096 15.2702 15.0446 15.7052L22.1246 22.7852V21.0002C22.1246 20.3852 22.6346 19.8752 23.2496 19.8752C23.8646 19.8752 24.3746 20.3852 24.3746 21.0002V25.5002Z" fill="#B8B800"/>
</svg>
