<svg width="37" height="36" viewBox="0 0 37 36" fill="none" xmlns="http://www.w3.org/2000/svg">
<path d="M21.7746 3H14.7246C13.1646 3 11.8896 4.26 11.8896 5.82V7.23C11.8896 8.79 13.1496 10.05 14.7096 10.05H21.7746C23.3346 10.05 24.5946 8.79 24.5946 7.23V5.82C24.6096 4.26 23.3346 3 21.7746 3Z" fill="#1C1C1A"/>
<path d="M26.1096 7.23021C26.1096 9.61521 24.1596 11.5652 21.7746 11.5652H14.7246C12.3396 11.5652 10.3896 9.61521 10.3896 7.23021C10.3896 6.39021 9.48957 5.86521 8.73957 6.25521C6.62457 7.38021 5.18457 9.61521 5.18457 12.1802V26.2952C5.18457 29.9852 8.19957 33.0002 11.8896 33.0002H24.6096C28.2996 33.0002 31.3146 29.9852 31.3146 26.2952V12.1802C31.3146 9.61521 29.8746 7.38021 27.7596 6.25521C27.0096 5.86521 26.1096 6.39021 26.1096 7.23021ZM23.5446 26.2952C23.3196 26.5202 23.0346 26.6252 22.7496 26.6252C22.4646 26.6252 22.1796 26.5202 21.9546 26.2952L14.8746 19.2152V21.0002C14.8746 21.6152 14.3646 22.1252 13.7496 22.1252C13.1346 22.1252 12.6246 21.6152 12.6246 21.0002V16.5002C12.6246 15.8852 13.1346 15.3752 13.7496 15.3752H18.2496C18.8646 15.3752 19.3746 15.8852 19.3746 16.5002C19.3746 17.1152 18.8646 17.6252 18.2496 17.6252H16.4646L23.5446 24.7052C23.9796 25.1402 23.9796 25.8602 23.5446 26.2952Z" fill="#1C1C1A"/>
</svg>
