<svg width="16" height="16" viewBox="0 0 16 16" fill="none" xmlns="http://www.w3.org/2000/svg">
<path d="M7.99967 1.33301C4.32634 1.33301 1.33301 4.32634 1.33301 7.99967C1.33301 11.673 4.32634 14.6663 7.99967 14.6663C11.673 14.6663 14.6663 11.673 14.6663 7.99967C14.6663 4.32634 11.673 1.33301 7.99967 1.33301ZM10.8997 10.3797C10.8063 10.5397 10.6397 10.6263 10.4663 10.6263C10.3797 10.6263 10.293 10.6063 10.213 10.553L8.14634 9.31967C7.63301 9.01301 7.25301 8.33967 7.25301 7.74634V5.01301C7.25301 4.73967 7.47967 4.51301 7.75301 4.51301C8.02634 4.51301 8.25301 4.73967 8.25301 5.01301V7.74634C8.25301 7.98634 8.45301 8.33967 8.65967 8.45967L10.7263 9.69301C10.9663 9.83301 11.0463 10.1397 10.8997 10.3797Z" fill="#555555"/>
</svg>
