<svg width="81" height="80" viewBox="0 0 81 80" fill="none" xmlns="http://www.w3.org/2000/svg">
<path d="M55.6168 28.7163C52.9334 28.4497 50.2501 28.2497 47.5501 28.0997V28.083L47.1834 25.9163C46.9334 24.383 46.5668 22.083 42.6668 22.083H38.3001C34.4168 22.083 34.0501 24.283 33.7834 25.8997L33.4334 28.033C31.8834 28.133 30.3334 28.233 28.7834 28.383L25.3834 28.7163C24.6834 28.783 24.1834 29.3997 24.2501 30.083C24.3168 30.7663 24.9168 31.2663 25.6168 31.1997L29.0168 30.8663C37.7501 29.9997 46.5501 30.333 55.3834 31.2163C55.4334 31.2163 55.4668 31.2163 55.5168 31.2163C56.1501 31.2163 56.7001 30.733 56.7668 30.083C56.8168 29.3997 56.3168 28.783 55.6168 28.7163Z" fill="#DB1D1D"/>
<path d="M52.5509 33.567C52.1509 33.1503 51.6009 32.917 51.0342 32.917H29.9676C29.4009 32.917 28.8342 33.1503 28.4509 33.567C28.0676 33.9837 27.8509 34.5503 27.8842 35.1337L28.9176 52.2337C29.1009 54.767 29.3342 57.9337 35.1509 57.9337H45.8509C51.6676 57.9337 51.9009 54.7837 52.0842 52.2337L53.1176 35.1503C53.1509 34.5503 52.9342 33.9837 52.5509 33.567ZM43.2676 49.5837H37.7176C37.0342 49.5837 36.4676 49.017 36.4676 48.3337C36.4676 47.6503 37.0342 47.0837 37.7176 47.0837H43.2676C43.9509 47.0837 44.5176 47.6503 44.5176 48.3337C44.5176 49.017 43.9509 49.5837 43.2676 49.5837ZM44.6676 42.917H36.3342C35.6509 42.917 35.0842 42.3503 35.0842 41.667C35.0842 40.9837 35.6509 40.417 36.3342 40.417H44.6676C45.3509 40.417 45.9176 40.9837 45.9176 41.667C45.9176 42.3503 45.3509 42.917 44.6676 42.917Z" fill="#DB1D1D"/>
<rect x="1" y="0.5" width="79" height="79" rx="39.5" stroke="#DB1D1D"/>
</svg>
