<svg width="16" height="16" viewBox="0 0 16 16" fill="none" xmlns="http://www.w3.org/2000/svg">
<path d="M1.80705 11.3465L2.96705 9.02649C3.28705 8.37982 3.28705 7.62649 2.96705 6.97982L1.80705 4.65315C0.813714 2.66649 2.95371 0.566486 4.92038 1.60649L5.94705 2.15315C6.09371 2.22649 6.20705 2.34649 6.26705 2.49315L10.0604 10.9265C10.2137 11.2732 10.0737 11.6798 9.74038 11.8532L4.91371 14.3932C2.95371 15.4332 0.813714 13.3332 1.80705 11.3465Z" fill="#555555"/>
<path d="M10.8738 10.4003L8.38714 4.8803C8.10714 4.2603 8.77381 3.63363 9.37381 3.95363L13.2205 5.9803C14.8538 6.8403 14.8538 9.17363 13.2205 10.0336L11.8605 10.747C11.4938 10.9336 11.0471 10.7803 10.8738 10.4003Z" fill="#555555"/>
</svg>
