<svg width="44" height="44" viewBox="0 0 44 44" fill="none" xmlns="http://www.w3.org/2000/svg">
<rect width="44" height="44" rx="22" fill="#F4F4F4"/>
<path fill-rule="evenodd" clip-rule="evenodd" d="M17.4998 14.75C17.4998 14.531 19.7578 13 21.9998 13C24.2418 13 26.4998 14.5315 26.4998 14.75C26.4998 15.53 26.4168 15.992 26.3468 16.2435C26.3003 16.4085 26.1458 16.5 25.9743 16.5H18.0253C17.8538 16.5 17.6993 16.4085 17.6528 16.2435C17.5828 15.992 17.4998 15.53 17.4998 14.75ZM21.2498 14.5C21.1172 14.5 20.99 14.5527 20.8962 14.6464C20.8025 14.7402 20.7498 14.8674 20.7498 15C20.7498 15.1326 20.8025 15.2598 20.8962 15.3536C20.99 15.4473 21.1172 15.5 21.2498 15.5H22.7498C22.8824 15.5 23.0096 15.4473 23.1033 15.3536C23.1971 15.2598 23.2498 15.1326 23.2498 15C23.2498 14.8674 23.1971 14.7402 23.1033 14.6464C23.0096 14.5527 22.8824 14.5 22.7498 14.5H21.2498ZM18.0188 19.609C16.3538 19.094 16.7738 18.174 17.4088 17.5H26.7298C27.2378 18.149 27.5103 19.0245 25.9748 19.5485C26.0375 20.1055 25.9825 20.6695 25.8133 21.2039C25.6441 21.7383 25.3645 22.2311 24.9925 22.6505C24.6206 23.0698 24.1647 23.4064 23.6543 23.6382C23.144 23.87 22.5906 23.992 22.0301 23.9962C21.4696 24.0005 20.9144 23.8868 20.4006 23.6627C19.8869 23.4386 19.4259 23.109 19.0477 22.6953C18.6695 22.2816 18.3824 21.793 18.2052 21.2613C18.0279 20.7295 17.9644 20.1664 18.0188 19.6085V19.609ZM21.8638 20C23.1848 20 24.2088 19.93 24.9938 19.808C25.0196 20.2157 24.9619 20.6243 24.8242 21.0089C24.6865 21.3934 24.4717 21.7458 24.193 22.0444C23.9143 22.3431 23.5775 22.5816 23.2034 22.7455C22.8292 22.9094 22.4255 22.9951 22.017 22.9975C21.6086 22.9998 21.2039 22.9187 20.8279 22.7592C20.4519 22.5996 20.1124 22.365 19.8303 22.0696C19.5482 21.7742 19.3293 21.4243 19.1872 21.0413C19.0451 20.6584 18.9827 20.2504 19.0038 19.8425C19.7353 19.9435 20.6728 20 21.8638 20ZM26.2083 27.3C25.756 26.5944 25.1335 26.0139 24.3981 25.612C23.6626 25.2101 22.8379 24.9996 21.9998 25C21.1613 24.9995 20.3362 25.2099 19.6005 25.6121C18.8648 26.0142 18.2421 26.595 17.7898 27.301C17.6219 27.0425 17.3641 26.8554 17.0663 26.776L16.1003 26.5175C15.7801 26.4317 15.4389 26.4765 15.1518 26.6422C14.8647 26.8079 14.6552 27.0808 14.5693 27.401L14.1813 28.85C14.1388 29.0086 14.1279 29.174 14.1494 29.3367C14.1708 29.4995 14.2241 29.6564 14.3062 29.7986C14.3883 29.9408 14.4975 30.0654 14.6278 30.1653C14.758 30.2652 14.9067 30.3385 15.0653 30.381L16.0308 30.64C16.1932 30.6837 16.3628 30.6942 16.5293 30.6706C16.6958 30.6471 16.8559 30.5901 16.9998 30.503C17.0002 30.6356 17.0532 30.7626 17.1473 30.8561C17.2413 30.9496 17.3687 31.0019 17.5013 31.0015C17.6339 31.0011 17.7609 30.948 17.8544 30.854C17.9479 30.7599 18.0002 30.6326 17.9998 30.5V30C17.9998 29.8095 18.0133 29.622 18.0388 29.4385L20.6408 30.136C20.7616 30.3945 20.9536 30.6132 21.1943 30.7665C21.435 30.9197 21.7144 31.0011 21.9998 31.0011C22.2851 31.0011 22.5645 30.9197 22.8053 30.7665C23.046 30.6132 23.238 30.3945 23.3588 30.136L25.9608 29.4385C25.9863 29.622 25.9998 29.8095 25.9998 30V30.5C25.9991 30.6326 26.0512 30.76 26.1445 30.8543C26.2378 30.9485 26.3647 31.0018 26.4973 31.0025C26.6299 31.0032 26.7573 30.9511 26.8516 30.8578C26.9458 30.7645 26.9991 30.6376 26.9998 30.505C27.2798 30.673 27.6258 30.7315 27.9663 30.64L28.9323 30.3815C29.0909 30.339 29.2395 30.2657 29.3698 30.1658C29.5 30.0659 29.6093 29.9413 29.6914 29.7991C29.7735 29.6569 29.8268 29.5 29.8482 29.3372C29.8696 29.1745 29.8588 29.0091 29.8163 28.8505L29.4278 27.4015C29.3419 27.0813 29.1323 26.8084 28.8452 26.6427C28.5581 26.477 28.217 26.4322 27.8968 26.518L26.9308 26.7765C26.6336 26.8556 26.3763 27.0424 26.2083 27.3ZM18.3013 28.4735C18.5714 27.8203 19.0096 27.2502 19.5714 26.8212C20.1331 26.3922 20.7985 26.1196 21.4998 26.031V28.0855C21.2757 28.165 21.0737 28.2965 20.9103 28.4692C20.7469 28.6419 20.6267 28.8509 20.5598 29.079L18.3013 28.474V28.4735ZM25.6983 28.4735C25.4281 27.8203 24.9899 27.2503 24.4281 26.8213C23.8664 26.3923 23.201 26.1196 22.4998 26.031V28.0855C22.9518 28.2455 23.3048 28.6155 23.4398 29.079L25.6983 28.474V28.4735ZM21.9998 30C22.1324 30 22.2596 29.9473 22.3533 29.8536C22.4471 29.7598 22.4998 29.6326 22.4998 29.5C22.4998 29.3674 22.4471 29.2402 22.3533 29.1464C22.2596 29.0527 22.1324 29 21.9998 29C21.8672 29 21.74 29.0527 21.6462 29.1464C21.5525 29.2402 21.4998 29.3674 21.4998 29.5C21.4998 29.6326 21.5525 29.7598 21.6462 29.8536C21.74 29.9473 21.8672 30 21.9998 30Z" fill="#555555"/>
</svg>
