<svg width="16" height="16" viewBox="0 0 16 16" fill="none" xmlns="http://www.w3.org/2000/svg">
<path d="M10.793 1.33301H5.20634C2.77967 1.33301 1.33301 2.77967 1.33301 5.20634V10.7863C1.33301 13.2197 2.77967 14.6663 5.20634 14.6663H10.7863C13.213 14.6663 14.6597 13.2197 14.6597 10.793V5.20634C14.6663 2.77967 13.2197 1.33301 10.793 1.33301ZM7.29967 11.673C7.10634 11.8663 6.73967 12.053 6.47301 12.093L4.83301 12.3263C4.77301 12.333 4.71301 12.3397 4.65301 12.3397C4.37967 12.3397 4.12634 12.2463 3.94634 12.0663C3.72634 11.8463 3.63301 11.5263 3.68634 11.173L3.91967 9.53301C3.95967 9.25968 4.13967 8.89967 4.33967 8.70634L7.31301 5.73301C7.36634 5.87301 7.41967 6.01301 7.49301 6.17301C7.55967 6.31301 7.63301 6.45967 7.71301 6.59301C7.77967 6.70634 7.85301 6.81301 7.91301 6.89301C7.98634 7.00634 8.07301 7.11301 8.12634 7.17301C8.15967 7.21967 8.18634 7.25301 8.19967 7.26634C8.36634 7.46634 8.55967 7.65301 8.72634 7.79301C8.77301 7.83967 8.79967 7.86634 8.81301 7.87301C8.91301 7.95301 9.01301 8.03301 9.09967 8.09301C9.20634 8.17301 9.31301 8.24634 9.42634 8.30634C9.55968 8.38634 9.70634 8.45967 9.85301 8.53301C10.0063 8.59967 10.1463 8.65968 10.2863 8.70634L7.29967 11.673ZM11.5797 7.39301L10.9663 8.01301C10.9263 8.05301 10.873 8.07301 10.8197 8.07301C10.7997 8.07301 10.773 8.07301 10.7597 8.06634C9.40634 7.67968 8.32634 6.59967 7.93967 5.24634C7.91967 5.17301 7.93967 5.09301 7.99301 5.04634L8.61301 4.42634C9.62634 3.41301 10.593 3.43301 11.5863 4.42634C12.093 4.93301 12.3397 5.41967 12.3397 5.92634C12.333 6.40634 12.0863 6.88634 11.5797 7.39301Z" fill="#555555"/>
</svg>
