<svg width="300" height="200" viewBox="0 0 300 200" fill="none" xmlns="http://www.w3.org/2000/svg">
<g clip-path="url(#clip0_2718_4340)">
<path fill-rule="evenodd" clip-rule="evenodd" d="M104.139 106.01V78.0012C104.139 68.5789 109.15 59.8682 117.29 55.1276L143.757 39.7235C147.8 37.3717 152.393 36.1328 157.07 36.1328C161.747 36.1328 166.341 37.3717 170.383 39.7235L196.851 55.1276C204.997 59.8682 210.008 68.5789 210.008 78.0012V106.01C210.008 115.432 204.997 124.143 196.857 128.883L170.389 144.287C166.347 146.639 161.753 147.878 157.076 147.878C152.399 147.878 147.806 146.639 143.763 144.287L117.296 128.883C109.15 124.143 104.139 115.432 104.139 106.01Z" fill="#0C0C0C" stroke="#0C0C0C" stroke-width="7.139" stroke-linecap="round" stroke-linejoin="round"/>
<path d="M157.074 91.9947V65.5273M157.068 112.58C156.257 112.58 155.598 113.239 155.604 114.051C155.609 114.437 155.767 114.805 156.042 115.076C156.317 115.347 156.688 115.499 157.074 115.499C157.46 115.499 157.831 115.347 158.106 115.076C158.381 114.805 158.539 114.437 158.545 114.051C158.544 113.857 158.506 113.666 158.432 113.487C158.357 113.308 158.248 113.146 158.111 113.009C157.974 112.873 157.811 112.765 157.632 112.691C157.453 112.617 157.262 112.58 157.068 112.58Z" stroke="white" stroke-width="10" stroke-linecap="round" stroke-linejoin="round"/>
<path fill-rule="evenodd" clip-rule="evenodd" d="M70.6993 137.939H72.4247C72.6244 137.939 72.8159 138.019 72.9571 138.16C73.0984 138.301 73.1778 138.492 73.178 138.692V140.418C73.1777 140.617 73.0983 140.809 72.957 140.95C72.8158 141.091 72.6243 141.171 72.4247 141.171H70.6993C70.4998 141.17 70.3088 141.09 70.1677 140.949C70.0267 140.808 69.9471 140.617 69.9463 140.418V138.692C69.9427 138.278 70.282 137.939 70.6993 137.939ZM76.6813 137.939H78.407C78.6064 137.94 78.7975 138.019 78.9386 138.161C79.0796 138.302 79.1592 138.493 79.16 138.692V140.418C79.1598 140.617 79.0804 140.809 78.9392 140.95C78.7981 141.091 78.6066 141.171 78.407 141.171H76.6813C76.4818 141.17 76.2908 141.09 76.1497 140.949C76.0087 140.808 75.9291 140.617 75.9283 140.418V138.692C75.9291 138.493 76.0087 138.302 76.1497 138.161C76.2908 138.019 76.4818 137.94 76.6813 137.939ZM82.6676 137.939H84.393C84.5925 137.94 84.7837 138.019 84.9248 138.16C85.0659 138.301 85.1455 138.493 85.1463 138.692V140.418C85.1461 140.617 85.0666 140.809 84.9254 140.95C84.7841 141.091 84.5927 141.171 84.393 141.171H82.6676C82.4682 141.17 82.2771 141.09 82.1361 140.949C81.995 140.808 81.9154 140.617 81.9147 140.418V138.692C81.911 138.278 82.2503 137.939 82.6676 137.939ZM88.6497 137.939H90.3753C90.5748 137.94 90.7659 138.019 90.9069 138.161C91.0479 138.302 91.1275 138.493 91.1283 138.692V140.418C91.1281 140.617 91.0488 140.809 90.9076 140.95C90.7664 141.091 90.575 141.171 90.3753 141.171H88.6497C88.4496 141.171 88.2577 141.092 88.1159 140.95C87.9741 140.809 87.8939 140.618 87.893 140.418V138.692C87.8952 138.492 87.9757 138.302 88.1172 138.161C88.2588 138.02 88.45 137.94 88.6497 137.939ZM94.6323 137.939H96.358C96.558 137.939 96.7499 138.018 96.8917 138.159C97.0335 138.301 97.1137 138.492 97.1147 138.692V140.418C97.1144 140.517 97.0947 140.615 97.0565 140.707C97.0184 140.798 96.9626 140.881 96.8923 140.951C96.8221 141.021 96.7387 141.076 96.647 141.114C96.5553 141.152 96.4571 141.171 96.358 141.171H94.6323C94.4329 141.17 94.2418 141.09 94.1007 140.949C93.9597 140.808 93.8801 140.617 93.8793 140.418V138.692C93.8801 138.493 93.9597 138.302 94.1007 138.161C94.2418 138.019 94.4329 137.94 94.6323 137.939ZM76.901 144.462H78.6263C78.8258 144.463 79.0169 144.543 79.1579 144.684C79.2989 144.825 79.3785 145.016 79.3793 145.215V146.944C79.3786 147.144 79.2991 147.335 79.158 147.476C79.017 147.617 78.8258 147.697 78.6263 147.698H76.901C76.7012 147.698 76.5097 147.618 76.3685 147.477C76.2272 147.336 76.1478 147.144 76.1476 146.944V145.219C76.1471 145.12 76.1661 145.021 76.2038 144.93C76.2414 144.838 76.2968 144.754 76.3668 144.684C76.4368 144.614 76.5201 144.558 76.6118 144.52C76.7034 144.482 76.8017 144.462 76.901 144.462ZM82.883 144.462H84.6083C84.8078 144.463 84.999 144.543 85.1401 144.684C85.2812 144.825 85.3609 145.016 85.3616 145.215V146.944C85.3608 147.144 85.2811 147.335 85.14 147.476C84.9989 147.617 84.8078 147.697 84.6083 147.698H82.883C82.6835 147.697 82.4923 147.617 82.3513 147.476C82.2102 147.335 82.1307 147.144 82.13 146.944V145.219C82.1294 145.12 82.1484 145.022 82.186 144.93C82.2236 144.838 82.2789 144.754 82.3489 144.684C82.4189 144.614 82.5022 144.558 82.5938 144.52C82.6855 144.482 82.7838 144.462 82.883 144.462ZM88.8656 144.462H90.591C90.791 144.462 90.9829 144.542 91.1247 144.683C91.2665 144.824 91.3467 145.015 91.3477 145.215V146.944C91.3468 147.145 91.2667 147.336 91.1249 147.477C90.983 147.619 90.7911 147.698 90.591 147.698H88.8656C88.6661 147.697 88.475 147.617 88.334 147.476C88.1929 147.335 88.1133 147.144 88.1126 146.944V145.219C88.1126 145.019 88.1919 144.827 88.333 144.685C88.4741 144.544 88.6656 144.463 88.8656 144.462ZM82.6676 130.931H84.393C84.5925 130.932 84.7836 131.012 84.9247 131.153C85.0658 131.294 85.1454 131.485 85.1463 131.684V133.41C85.1461 133.609 85.0667 133.801 84.9255 133.942C84.7842 134.083 84.5927 134.163 84.393 134.163H82.6676C82.4682 134.162 82.2771 134.082 82.1361 133.941C81.995 133.8 81.9154 133.609 81.9147 133.41V131.684C81.911 131.271 82.2503 130.931 82.6676 130.931ZM88.6497 130.931H90.3753C90.5748 130.932 90.766 131.012 90.907 131.153C91.0481 131.294 91.1276 131.485 91.1283 131.684V133.41C91.1282 133.609 91.0489 133.801 90.9077 133.942C90.7665 134.083 90.575 134.163 90.3753 134.163H88.6497C88.4496 134.163 88.2577 134.084 88.1159 133.942C87.9741 133.801 87.8939 133.61 87.893 133.41V131.684C87.8952 131.485 87.9757 131.294 88.1172 131.153C88.2587 131.012 88.4499 130.932 88.6497 130.931ZM218.175 40.3088H219.9C220.1 40.3089 220.291 40.3882 220.432 40.5294C220.574 40.6706 220.653 40.8621 220.653 41.0618V42.7874C220.653 42.9871 220.574 43.1786 220.432 43.3197C220.291 43.4609 220.1 43.5403 219.9 43.5404H218.175C217.975 43.5397 217.784 43.4601 217.643 43.319C217.502 43.178 217.422 42.9869 217.422 42.7874V41.0618C217.418 40.6481 217.757 40.3088 218.175 40.3088ZM224.157 40.3088H225.882C226.082 40.3095 226.273 40.389 226.414 40.5301C226.555 40.6711 226.635 40.8623 226.635 41.0618V42.7874C226.635 42.9872 226.556 43.1786 226.414 43.3198C226.273 43.461 226.082 43.5404 225.882 43.5404H224.157C223.957 43.5397 223.766 43.4601 223.625 43.319C223.484 43.178 223.404 42.9869 223.404 42.7874V41.0618C223.404 40.8623 223.484 40.6712 223.625 40.5302C223.766 40.3892 223.957 40.3096 224.157 40.3088ZM230.143 40.3088H231.868C232.068 40.3095 232.259 40.389 232.4 40.5301C232.541 40.6711 232.621 40.8623 232.622 41.0618V42.7874C232.621 42.9871 232.542 43.1786 232.401 43.3197C232.259 43.4609 232.068 43.5403 231.868 43.5404H230.143C229.944 43.5397 229.752 43.4601 229.611 43.319C229.47 43.178 229.391 42.9869 229.39 42.7874V41.0618C229.386 40.6481 229.726 40.3088 230.143 40.3088ZM236.125 40.3088H237.85C238.05 40.3095 238.241 40.389 238.382 40.5301C238.523 40.6711 238.603 40.8623 238.604 41.0618V42.7874C238.603 42.9872 238.524 43.1786 238.383 43.3198C238.242 43.461 238.05 43.5404 237.85 43.5404H236.125C235.925 43.5405 235.733 43.4612 235.591 43.3201C235.449 43.179 235.369 42.9875 235.368 42.7874V41.0618C235.371 40.8621 235.451 40.6713 235.593 40.5305C235.734 40.3896 235.925 40.31 236.125 40.3088ZM242.108 40.3088H243.833C244.033 40.3088 244.225 40.388 244.367 40.5291C244.509 40.6702 244.589 40.8617 244.59 41.0618V42.7874C244.59 42.8866 244.57 42.9847 244.532 43.0762C244.494 43.1677 244.438 43.2508 244.368 43.3207C244.297 43.3906 244.214 43.446 244.122 43.4837C244.031 43.5214 243.932 43.5407 243.833 43.5404H242.108C241.908 43.5397 241.717 43.4601 241.576 43.319C241.435 43.178 241.355 42.9869 241.355 42.7874V41.0618C241.355 40.8623 241.435 40.6712 241.576 40.5302C241.717 40.3892 241.908 40.3096 242.108 40.3088ZM224.376 46.8321H226.102C226.301 46.8329 226.492 46.9125 226.633 47.0535C226.774 47.1946 226.854 47.3857 226.855 47.5851V49.3141C226.854 49.5136 226.774 49.7048 226.633 49.8459C226.492 49.987 226.301 50.0667 226.102 50.0674H224.376C224.177 50.0673 223.985 49.9878 223.844 49.8466C223.703 49.7054 223.623 49.5139 223.623 49.3141V47.5888C223.622 47.4895 223.641 47.3912 223.679 47.2993C223.717 47.2075 223.772 47.124 223.842 47.0536C223.912 46.9833 223.995 46.9275 224.087 46.8895C224.179 46.8515 224.277 46.832 224.376 46.8321ZM230.358 46.8321H232.084C232.283 46.8328 232.474 46.9124 232.615 47.0534C232.757 47.1945 232.836 47.3856 232.837 47.5851V49.3141C232.836 49.5136 232.756 49.7047 232.615 49.8458C232.474 49.9869 232.283 50.0666 232.084 50.0674H230.358C230.159 50.0667 229.968 49.987 229.827 49.8459C229.686 49.7048 229.606 49.5136 229.605 49.3141V47.5888C229.605 47.4896 229.624 47.3912 229.661 47.2993C229.699 47.2075 229.754 47.124 229.824 47.0537C229.894 46.9833 229.977 46.9275 230.069 46.8895C230.161 46.8515 230.259 46.832 230.358 46.8321ZM236.341 46.8321H238.066C238.266 46.8321 238.458 46.9113 238.6 47.0524C238.742 47.1936 238.822 47.3851 238.823 47.5851V49.3141C238.822 49.5142 238.742 49.7058 238.6 49.847C238.458 49.9882 238.266 50.0674 238.066 50.0674H236.341C236.141 50.0667 235.95 49.987 235.809 49.8459C235.668 49.7048 235.589 49.5136 235.588 49.3141V47.5888C235.588 47.3887 235.667 47.1968 235.808 47.055C235.949 46.9132 236.141 46.8331 236.341 46.8321ZM230.143 33.3008H231.868C232.068 33.3015 232.259 33.381 232.4 33.5221C232.541 33.6631 232.621 33.8543 232.622 34.0538V35.7794C232.621 35.9791 232.542 36.1706 232.401 36.3117C232.259 36.4529 232.068 36.5323 231.868 36.5324H230.143C229.944 36.5317 229.752 36.4521 229.611 36.311C229.47 36.17 229.391 35.9789 229.39 35.7794V34.0538C229.386 33.6401 229.726 33.3008 230.143 33.3008ZM236.125 33.3008H237.85C238.05 33.3015 238.241 33.381 238.382 33.5221C238.523 33.6631 238.603 33.8543 238.604 34.0538V35.7794C238.603 35.9792 238.524 36.1706 238.383 36.3118C238.242 36.453 238.05 36.5324 237.85 36.5324H236.125C235.925 36.5325 235.733 36.4532 235.591 36.3121C235.449 36.171 235.369 35.9795 235.368 35.7794V34.0538C235.371 33.8541 235.451 33.6633 235.593 33.5225C235.734 33.3816 235.925 33.302 236.125 33.3008ZM76.4663 41.9564H78.192C78.3916 41.9566 78.5831 42.036 78.7242 42.1772C78.8654 42.3184 78.9448 42.5098 78.945 42.7095V44.4351C78.9448 44.6348 78.8654 44.8262 78.7242 44.9674C78.5831 45.1086 78.3916 45.1879 78.192 45.1881H76.4663C76.2669 45.1873 76.0758 45.1077 75.9347 44.9667C75.7937 44.8256 75.7141 44.6346 75.7133 44.4351V42.7095C75.7097 42.2958 76.0493 41.9564 76.4663 41.9564ZM82.4486 41.9564H84.174C84.3734 41.9572 84.5645 42.0368 84.7056 42.1779C84.8466 42.3189 84.9262 42.51 84.927 42.7095V44.4351C84.9268 44.6348 84.8474 44.8262 84.7062 44.9674C84.5651 45.1086 84.3736 45.1879 84.174 45.1881H82.4486C82.2491 45.1874 82.058 45.1079 81.9169 44.9668C81.7757 44.8258 81.6961 44.6346 81.6953 44.4351V42.7095C81.6961 42.5099 81.7757 42.3188 81.9169 42.1778C82.058 42.0367 82.2491 41.9572 82.4486 41.9564ZM88.4346 41.9564H90.1603C90.3598 41.9572 90.5509 42.0368 90.6919 42.1779C90.8329 42.3189 90.9125 42.51 90.9133 42.7095V44.4351C90.9131 44.6348 90.8337 44.8262 90.6926 44.9674C90.5514 45.1086 90.36 45.1879 90.1603 45.1881H88.4346C88.2352 45.1873 88.0441 45.1077 87.9031 44.9667C87.762 44.8256 87.6824 44.6346 87.6816 44.4351V42.7095C87.678 42.2958 88.0176 41.9564 88.4346 41.9564ZM94.417 41.9564H96.1423C96.3418 41.9572 96.5329 42.0368 96.6739 42.1779C96.8149 42.3189 96.8945 42.51 96.8953 42.7095V44.4351C96.8951 44.6348 96.8158 44.8262 96.6746 44.9674C96.5334 45.1086 96.342 45.1879 96.1423 45.1881H94.417C94.2169 45.1881 94.025 45.1089 93.8832 44.9678C93.7414 44.8267 93.6613 44.6352 93.6603 44.4351V42.7095C93.6625 42.5098 93.743 42.319 93.8846 42.1781C94.0261 42.0373 94.2173 41.9577 94.417 41.9564ZM100.4 41.9564H102.125C102.325 41.9564 102.517 42.0357 102.659 42.1768C102.801 42.3179 102.881 42.5094 102.882 42.7095V44.4351C102.881 44.5343 102.862 44.6324 102.824 44.7239C102.785 44.8154 102.73 44.8985 102.659 44.9685C102.589 45.0384 102.506 45.0938 102.414 45.1315C102.322 45.1692 102.224 45.1884 102.125 45.1881H100.4C100.2 45.1874 100.009 45.1079 99.8679 44.9668C99.7267 44.8258 99.6471 44.6346 99.6463 44.4351V42.7095C99.6471 42.5099 99.7267 42.3188 99.8679 42.1778C100.009 42.0367 100.2 41.9572 100.4 41.9564ZM82.668 48.4798H84.3937C84.5932 48.4806 84.7843 48.5602 84.9253 48.7013C85.0664 48.8424 85.1459 49.0336 85.1467 49.2331V50.9621C85.1459 51.1616 85.0663 51.3527 84.9252 51.4937C84.7842 51.6347 84.5931 51.7143 84.3937 51.7151H82.668C82.4683 51.7149 82.2769 51.6355 82.1357 51.4944C81.9945 51.3532 81.9152 51.1618 81.915 50.9621V49.2364C81.9144 49.1372 81.9335 49.0389 81.9711 48.9471C82.0087 48.8552 82.064 48.7718 82.134 48.7014C82.204 48.6311 82.2872 48.5753 82.3789 48.5373C82.4705 48.4992 82.5688 48.4797 82.668 48.4798ZM88.6503 48.4798H90.3756C90.5752 48.4806 90.7663 48.5602 90.9073 48.7013C91.0484 48.8424 91.1279 49.0336 91.1286 49.2331V50.9621C91.1279 51.1616 91.0483 51.3527 90.9072 51.4937C90.7662 51.6347 90.5751 51.7143 90.3756 51.7151H88.6503C88.4508 51.7144 88.2596 51.6349 88.1185 51.4938C87.9774 51.3528 87.8978 51.1616 87.897 50.9621V49.2364C87.8965 49.1372 87.9156 49.0389 87.9532 48.947C87.9908 48.8552 88.0462 48.7717 88.1162 48.7014C88.1863 48.6311 88.2695 48.5753 88.3611 48.5373C88.4528 48.4992 88.5511 48.4797 88.6503 48.4798ZM94.633 48.4798H96.3583C96.5584 48.4799 96.7503 48.5592 96.8921 48.7003C97.0339 48.8415 97.114 49.033 97.115 49.2331V50.9621C97.114 51.1622 97.0339 51.3537 96.8921 51.4948C96.7503 51.6359 96.5584 51.7151 96.3583 51.7151H94.633C94.4335 51.7144 94.2423 51.6349 94.1012 51.4938C93.9601 51.3528 93.8804 51.1616 93.8797 50.9621V49.2364C93.8797 49.0363 93.9589 48.8444 94.1001 48.7026C94.2413 48.5608 94.4329 48.4807 94.633 48.4798ZM88.4346 34.9484H90.1603C90.3598 34.9492 90.551 35.0289 90.692 35.17C90.8331 35.3111 90.9126 35.5023 90.9133 35.7018V37.4271C90.9132 37.6268 90.8339 37.8183 90.6927 37.9595C90.5515 38.1007 90.36 38.18 90.1603 38.1801H88.4346C88.2352 38.1793 88.0441 38.0997 87.9031 37.9587C87.762 37.8177 87.6824 37.6266 87.6816 37.4271V35.7018C87.678 35.2881 88.0176 34.9484 88.4346 34.9484ZM94.417 34.9484H96.1423C96.3418 34.9492 96.533 35.0289 96.674 35.17C96.8151 35.3111 96.8946 35.5023 96.8953 35.7018V37.4271C96.8952 37.6268 96.8159 37.8183 96.6747 37.9595C96.5335 38.1007 96.342 38.18 96.1423 38.1801H94.417C94.2169 38.1801 94.025 38.1009 93.8832 37.9598C93.7414 37.8187 93.6613 37.6272 93.6603 37.4271V35.7018C93.6624 35.5021 93.7429 35.3112 93.8845 35.1702C94.026 35.0293 94.2173 34.9497 94.417 34.9484ZM220.083 138.33H221.809C222.009 138.33 222.2 138.41 222.341 138.551C222.482 138.692 222.562 138.883 222.562 139.083V140.808C222.562 141.008 222.483 141.2 222.341 141.341C222.2 141.482 222.009 141.562 221.809 141.562H220.083C219.884 141.561 219.693 141.481 219.552 141.34C219.411 141.199 219.331 141.008 219.33 140.808V139.083C219.327 138.669 219.666 138.33 220.083 138.33ZM226.066 138.33H227.791C227.99 138.331 228.182 138.41 228.323 138.552C228.464 138.693 228.543 138.884 228.544 139.083V140.808C228.544 141.008 228.465 141.2 228.323 141.341C228.182 141.482 227.991 141.562 227.791 141.562H226.066C225.866 141.561 225.675 141.481 225.534 141.34C225.393 141.199 225.313 141.008 225.312 140.808V139.083C225.313 138.884 225.393 138.692 225.534 138.551C225.675 138.41 225.866 138.331 226.066 138.33ZM232.052 138.33H233.777C233.977 138.331 234.168 138.41 234.309 138.552C234.45 138.693 234.53 138.884 234.53 139.083V140.808C234.53 141.008 234.451 141.2 234.31 141.341C234.169 141.482 233.977 141.562 233.777 141.562H232.052C231.852 141.561 231.661 141.481 231.52 141.34C231.379 141.199 231.3 141.008 231.299 140.808V139.083C231.295 138.669 231.635 138.33 232.052 138.33ZM238.034 138.33H239.759C239.959 138.331 240.15 138.41 240.291 138.551C240.432 138.692 240.512 138.884 240.513 139.083V140.808C240.512 141.008 240.433 141.2 240.292 141.341C240.151 141.482 239.959 141.562 239.759 141.562H238.034C237.834 141.562 237.642 141.483 237.5 141.341C237.358 141.2 237.278 141.009 237.277 140.808V139.083C237.28 138.883 237.36 138.693 237.502 138.552C237.643 138.411 237.834 138.331 238.034 138.33ZM244.017 138.33H245.742C245.942 138.33 246.134 138.409 246.276 138.55C246.418 138.692 246.498 138.883 246.499 139.083V140.808C246.498 140.908 246.479 141.006 246.441 141.097C246.403 141.189 246.347 141.272 246.276 141.342C246.206 141.412 246.123 141.467 246.031 141.505C245.939 141.543 245.841 141.562 245.742 141.562H244.017C243.817 141.561 243.626 141.481 243.485 141.34C243.344 141.199 243.264 141.008 243.264 140.808V139.083C243.264 138.884 243.344 138.693 243.485 138.552C243.626 138.41 243.817 138.331 244.017 138.33ZM226.285 144.853H228.011C228.21 144.854 228.401 144.934 228.542 145.075C228.683 145.216 228.763 145.407 228.764 145.606V147.335C228.763 147.535 228.683 147.726 228.542 147.867C228.401 148.008 228.21 148.088 228.011 148.088H226.285C226.085 148.088 225.894 148.009 225.753 147.868C225.612 147.727 225.532 147.535 225.532 147.335V145.61C225.531 145.511 225.55 145.413 225.588 145.321C225.626 145.229 225.681 145.145 225.751 145.075C225.821 145.005 225.904 144.949 225.996 144.911C226.087 144.873 226.186 144.853 226.285 144.853ZM232.267 144.853H233.993C234.192 144.854 234.383 144.934 234.524 145.075C234.665 145.216 234.745 145.407 234.746 145.606V147.335C234.745 147.535 234.665 147.726 234.524 147.867C234.383 148.008 234.192 148.088 233.993 148.088H232.267C232.068 148.088 231.877 148.008 231.736 147.867C231.594 147.726 231.515 147.535 231.514 147.335V145.61C231.513 145.511 231.532 145.412 231.57 145.321C231.608 145.229 231.663 145.145 231.733 145.075C231.803 145.005 231.886 144.949 231.978 144.911C232.07 144.873 232.168 144.853 232.267 144.853ZM238.25 144.853H239.975C240.175 144.853 240.367 144.933 240.509 145.074C240.651 145.215 240.731 145.406 240.732 145.606V147.335C240.731 147.535 240.651 147.727 240.509 147.868C240.367 148.009 240.175 148.088 239.975 148.088H238.25C238.05 148.088 237.859 148.008 237.718 147.867C237.577 147.726 237.497 147.535 237.497 147.335V145.61C237.497 145.41 237.576 145.218 237.717 145.076C237.858 144.935 238.05 144.854 238.25 144.853ZM232.052 131.322H233.777C233.977 131.323 234.168 131.402 234.309 131.544C234.45 131.685 234.53 131.876 234.53 132.075V133.801C234.53 134 234.451 134.192 234.31 134.333C234.168 134.474 233.977 134.554 233.777 134.554H232.052C231.852 134.553 231.661 134.474 231.52 134.332C231.379 134.191 231.299 134 231.299 133.801V132.075C231.295 131.661 231.635 131.322 232.052 131.322ZM238.034 131.322H239.759C239.959 131.323 240.15 131.402 240.291 131.543C240.432 131.684 240.512 131.876 240.513 132.075V133.801C240.512 134 240.433 134.192 240.292 134.333C240.15 134.474 239.959 134.554 239.759 134.554H238.034C237.834 134.554 237.642 134.475 237.5 134.333C237.358 134.192 237.278 134.001 237.277 133.801V132.075C237.28 131.875 237.36 131.685 237.502 131.544C237.643 131.403 237.834 131.323 238.034 131.322Z" fill="#E1E4E5"/>
<path d="M245.304 102.654C238.711 104.216 231.738 98.6245 231.738 98.6245C231.738 98.6245 235.459 90.5042 242.054 88.9475C248.647 87.3855 255.617 92.9719 255.617 92.9719C255.617 92.9719 251.896 101.092 245.304 102.654Z" fill="url(#paint0_linear_2718_4340)"/>
<path d="M44.9374 105.583C38.3447 107.145 31.3721 101.554 31.3721 101.554C31.3721 101.554 35.0931 93.4341 41.6877 91.8771C48.2804 90.3154 55.2507 95.9014 55.2507 95.9014C55.2507 95.9014 51.5297 104.022 44.9374 105.583Z" fill="url(#paint1_linear_2718_4340)"/>
<path d="M128.486 32.906C136.746 31.236 141.71 21.2883 141.71 21.2883C141.71 21.2883 133.277 14.054 125.017 15.7307C116.756 17.4007 111.792 27.3417 111.792 27.3417C111.792 27.3417 120.225 34.576 128.486 32.906Z" fill="url(#paint2_linear_2718_4340)"/>
<path d="M196.324 171.144C206.787 168.74 212.774 155.905 212.774 155.905C212.774 155.905 201.792 146.976 191.329 149.388C180.865 151.793 174.878 164.619 174.878 164.619C174.878 164.619 185.86 173.548 196.324 171.144Z" fill="url(#paint3_linear_2718_4340)"/>
<path d="M260.912 116.939C257.824 116.939 255.321 119.334 255.321 122.288C255.321 125.242 257.824 127.637 260.912 127.637C264 127.637 266.504 125.242 266.504 122.288C266.504 119.334 264 116.939 260.912 116.939Z" fill="#0C0C0C"/>
<path d="M98.0373 160.381C95.3488 160.381 93.1693 162.561 93.1693 165.249C93.1693 167.938 95.3488 170.117 98.0373 170.117C100.726 170.117 102.905 167.938 102.905 165.249C102.905 162.561 100.726 160.381 98.0373 160.381Z" fill="#0C0C0C"/>
<path d="M77.978 73.2686C76.501 73.2686 75.3037 72.0712 75.3037 70.5943C75.3037 69.1173 76.501 67.9199 77.978 67.9199C79.455 67.9199 80.6523 69.1173 80.6523 70.5943C80.6523 72.0712 79.455 73.2686 77.978 73.2686Z" fill="#0C0C0C"/>
<path d="M255.309 56.237C252.827 56.237 250.815 54.1412 250.815 51.556C250.815 48.9708 252.827 46.875 255.309 46.875C257.791 46.875 259.803 48.9708 259.803 51.556C259.803 54.1412 257.791 56.237 255.309 56.237Z" fill="#0C0C0C"/>
<path d="M46.9192 134.165C44.9546 134.165 43.3619 132.573 43.3619 130.608C43.3619 128.643 44.9546 127.051 46.9192 127.051C48.8839 127.051 50.4766 128.643 50.4766 130.608C50.4766 132.573 48.8839 134.165 46.9192 134.165Z" fill="#0C0C0C"/>
<path d="M131.007 164.339C128.613 164.339 126.673 162.474 126.673 160.173C126.673 157.871 128.613 156.006 131.007 156.006C133.4 156.006 135.34 157.871 135.34 160.173C135.34 162.474 133.4 164.339 131.007 164.339Z" fill="#E1E4E5"/>
<path d="M75.2757 104.917C73.702 104.917 72.4263 103.642 72.4263 102.068C72.4263 100.494 73.702 99.2188 75.2757 99.2188C76.8493 99.2188 78.125 100.494 78.125 102.068C78.125 103.642 76.8493 104.917 75.2757 104.917Z" fill="#E1E4E5"/>
<path d="M156.838 175.011C155.457 175.011 154.338 173.817 154.338 172.344C154.338 170.872 155.457 169.678 156.838 169.678C158.219 169.678 159.338 170.872 159.338 172.344C159.338 173.817 158.219 175.011 156.838 175.011Z" fill="#E1E4E5"/>
<path d="M174.986 25.5658C173.643 25.5658 172.554 24.4772 172.554 23.1345C172.554 21.7917 173.643 20.7031 174.986 20.7031C176.328 20.7031 177.417 21.7917 177.417 23.1345C177.417 24.4772 176.328 25.5658 174.986 25.5658Z" fill="#E1E4E5"/>
<path d="M65.7883 119.229C66.1279 120.496 65.3758 121.799 64.1084 122.139C62.8411 122.478 61.5384 121.726 61.1989 120.459C60.8593 119.191 61.6114 117.889 62.8787 117.549C64.146 117.21 65.4487 117.962 65.7883 119.229Z" fill="#E1E4E5"/>
<path d="M83.0581 20.8233C81.3125 20.8233 79.8974 19.4082 79.8974 17.6626C79.8974 15.917 81.3125 14.502 83.0581 14.502C84.8037 14.502 86.2188 15.917 86.2188 17.6626C86.2188 19.4082 84.8037 20.8233 83.0581 20.8233Z" fill="#E1E4E5"/>
<path d="M240.451 73.4701C239.109 73.4701 238.02 72.5993 238.02 71.5251C238.02 70.4509 239.109 69.5801 240.451 69.5801C241.794 69.5801 242.883 70.4509 242.883 71.5251C242.883 72.5993 241.794 73.4701 240.451 73.4701Z" fill="#E1E4E5"/>
<path d="M203.287 35.4196C203.994 38.0572 202.429 40.7684 199.791 41.4752C197.154 42.1819 194.442 40.6166 193.736 37.979C193.029 35.3414 194.594 32.6302 197.232 31.9234C199.87 31.2167 202.581 32.782 203.287 35.4196Z" fill="#E1E4E5"/>
<path d="M266.253 67.4812H266.317C266.693 72.8176 270.662 72.8996 270.662 72.8996C270.662 72.8996 266.286 72.9849 266.286 79.1509C266.286 72.9849 261.909 72.8996 261.909 72.8996C261.909 72.8996 265.876 72.8176 266.253 67.4812ZM56.0038 44.8242H56.1134C56.7621 54.1629 63.5968 54.3065 63.5968 54.3065C63.5968 54.3065 56.0601 54.4559 56.0601 65.2466C56.0601 54.4559 48.5234 54.3065 48.5234 54.3065C48.5234 54.3065 55.3551 54.1629 56.0038 44.8242Z" fill="#E1E4E5"/>
</g>
<defs>
<linearGradient id="paint0_linear_2718_4340" x1="220.478" y1="106.537" x2="278.189" y2="79.2722" gradientUnits="userSpaceOnUse">
<stop stop-color="white"/>
<stop offset="1" stop-color="#EEEEEE"/>
</linearGradient>
<linearGradient id="paint1_linear_2718_4340" x1="20.1114" y1="109.466" x2="77.8227" y2="82.2018" gradientUnits="userSpaceOnUse">
<stop stop-color="white"/>
<stop offset="1" stop-color="#EEEEEE"/>
</linearGradient>
<linearGradient id="paint2_linear_2718_4340" x1="158.552" y1="24.3607" x2="79.1583" y2="23.6243" gradientUnits="userSpaceOnUse">
<stop stop-color="white"/>
<stop offset="1" stop-color="#EEEEEE"/>
</linearGradient>
<linearGradient id="paint3_linear_2718_4340" x1="234.325" y1="159.251" x2="133.195" y2="160.982" gradientUnits="userSpaceOnUse">
<stop stop-color="white"/>
<stop offset="1" stop-color="#EEEEEE"/>
</linearGradient>
<clipPath id="clip0_2718_4340">
<rect width="300" height="200" fill="white"/>
</clipPath>
</defs>
</svg>
