<svg width="18" height="19" viewBox="0 0 18 19" fill="none" xmlns="http://www.w3.org/2000/svg">
<path d="M15.4497 3.5752V5.2252C15.4497 5.8252 15.0747 6.5752 14.6997 6.9502L11.4747 9.80019C11.0247 10.1752 10.7247 10.9252 10.7247 11.5252V14.7502C10.7247 15.2002 10.4247 15.8002 10.0497 16.0252L8.99967 16.7002C8.02467 17.3002 6.67467 16.6252 6.67467 15.4252V11.4502C6.67467 10.9252 6.37467 10.2502 6.07467 9.8752L5.72217 9.5077C5.48967 9.2602 5.44467 8.8852 5.63217 8.5927L9.47217 2.4277C9.60717 2.2102 9.84717 2.0752 10.1097 2.0752H13.9497C14.7747 2.0752 15.4497 2.7502 15.4497 3.5752Z" fill="#555555"/>
<path d="M7.7623 3.2227L5.0998 7.4902C4.8448 7.9027 4.2598 7.9627 3.9223 7.6102L3.2248 6.8752C2.8498 6.5002 2.5498 5.8252 2.5498 5.3752V3.6502C2.5498 2.7502 3.2248 2.0752 4.0498 2.0752H7.1248C7.7098 2.0752 8.0698 2.7202 7.7623 3.2227Z" fill="#555555"/>
</svg>
