<svg width="36" height="36" viewBox="0 0 36 36" fill="none" xmlns="http://www.w3.org/2000/svg">
<path d="M26.3997 7.96492L17.9247 3.40492C17.0247 2.92492 15.9597 2.92492 15.0597 3.40492L6.59973 7.96492C5.98473 8.30992 5.59473 8.96992 5.59473 9.68992C5.59473 10.4249 5.96973 11.0849 6.59973 11.4149L15.0747 15.9749C15.5247 16.2149 16.0197 16.3349 16.4997 16.3349C16.9797 16.3349 17.4897 16.2149 17.9247 15.9749L26.3997 11.4149C27.0147 11.0849 27.4047 10.4249 27.4047 9.68992C27.4047 8.96992 27.0147 8.30992 26.3997 7.96492Z" fill="#B04300"/>
<path d="M13.68 17.5649L5.805 13.6349C5.19 13.3199 4.5 13.3649 3.915 13.7099C3.345 14.0699 3 14.6849 3 15.3599V22.7999C3 24.0899 3.72 25.2449 4.875 25.8299L12.75 29.7599C13.02 29.8949 13.32 29.9699 13.62 29.9699C13.965 29.9699 14.325 29.8649 14.64 29.6849C15.21 29.3249 15.555 28.7099 15.555 28.0349V20.5949C15.54 19.3049 14.82 18.1499 13.68 17.5649Z" fill="#B04300"/>
<path d="M30 15.3599V19.0499C29.28 18.8399 28.515 18.7499 27.75 18.7499C25.71 18.7499 23.715 19.4549 22.14 20.7149C19.98 22.4099 18.75 24.9749 18.75 27.7499C18.75 28.4849 18.84 29.2199 19.035 29.9249C18.81 29.8949 18.585 29.8049 18.375 29.6699C17.805 29.3249 17.46 28.7099 17.46 28.0349V20.5949C17.46 19.3049 18.18 18.1499 19.32 17.5649L27.195 13.6349C27.81 13.3199 28.5 13.3649 29.085 13.7099C29.655 14.0699 30 14.6849 30 15.3599Z" fill="#B04300"/>
<path d="M32.97 23.475C31.74 21.96 29.865 21 27.75 21C26.16 21 24.69 21.555 23.535 22.485C21.975 23.715 21 25.62 21 27.75C21 29.865 21.96 31.74 23.475 32.97C24.63 33.93 26.13 34.5 27.75 34.5C29.46 34.5 31.005 33.855 32.205 32.82C33.6 31.575 34.5 29.775 34.5 27.75C34.5 26.13 33.93 24.63 32.97 23.475ZM29.295 28.17C29.295 28.56 29.085 28.935 28.755 29.13L26.64 30.39C26.46 30.495 26.265 30.555 26.055 30.555C25.68 30.555 25.305 30.36 25.095 30.015C24.78 29.475 24.945 28.785 25.485 28.47L27.045 27.54V25.65C27.045 25.035 27.555 24.525 28.17 24.525C28.785 24.525 29.295 25.035 29.295 25.65V28.17Z" fill="#B04300"/>
</svg>
