<svg width="40" height="40" viewBox="0 0 40 40" fill="none" xmlns="http://www.w3.org/2000/svg">
<rect width="40" height="40" rx="20" fill="#F4F4F4"/>
<path d="M20.678 27.957C20.9528 28.0209 20.9779 28.3807 20.7103 28.4699L19.1303 28.9899C15.1603 30.2699 13.0703 29.1999 11.7803 25.2299L10.5003 21.2799C9.22034 17.3099 10.2803 15.2099 14.2503 13.9299L14.7743 13.7564C15.1772 13.623 15.5693 14.027 15.4549 14.4357C15.3982 14.6383 15.3436 14.8497 15.2903 15.0699L14.3103 19.2599C13.2103 23.9699 14.8203 26.5699 19.5303 27.6899L20.678 27.957Z" fill="#555555"/>
<path d="M25.1702 11.2095L23.5002 10.8195C20.1602 10.0295 18.1702 10.6795 17.0002 13.0995C16.7002 13.7095 16.4602 14.4495 16.2602 15.2995L15.2802 19.4895C14.3002 23.6695 15.5902 25.7295 19.7602 26.7195L21.4402 27.1195C22.0202 27.2595 22.5602 27.3495 23.0602 27.3895C26.1802 27.6895 27.8402 26.2295 28.6802 22.6195L29.6602 18.4395C30.6402 14.2595 29.3602 12.1895 25.1702 11.2095ZM23.2902 21.3295C23.2002 21.6695 22.9002 21.8895 22.5602 21.8895C22.5002 21.8895 22.4402 21.8795 22.3702 21.8695L19.4602 21.1295C19.0602 21.0295 18.8202 20.6195 18.9202 20.2195C19.0202 19.8195 19.4302 19.5795 19.8302 19.6795L22.7402 20.4195C23.1502 20.5195 23.3902 20.9295 23.2902 21.3295ZM26.2202 17.9495C26.1302 18.2895 25.8302 18.5095 25.4902 18.5095C25.4302 18.5095 25.3702 18.4995 25.3002 18.4895L20.4502 17.2595C20.0502 17.1595 19.8102 16.7495 19.9102 16.3495C20.0102 15.9495 20.4202 15.7095 20.8202 15.8095L25.6702 17.0395C26.0802 17.1295 26.3202 17.5395 26.2202 17.9495Z" fill="#555555"/>
</svg>
