<svg width="37" height="36" viewBox="0 0 37 36" fill="none" xmlns="http://www.w3.org/2000/svg">
<path d="M32.5 23.25C32.92 23.25 33.25 23.58 33.25 24V25.5C33.25 27.99 31.24 30 28.75 30C28.75 27.525 26.725 25.5 24.25 25.5C21.775 25.5 19.75 27.525 19.75 30H16.75C16.75 27.525 14.725 25.5 12.25 25.5C9.775 25.5 7.75 27.525 7.75 30C5.26 30 3.25 27.99 3.25 25.5V22.5C3.25 21.675 3.925 21 4.75 21H19C21.07 21 22.75 19.32 22.75 17.25V9C22.75 8.175 23.425 7.5 24.25 7.5H25.51C26.59 7.5 27.58 8.085 28.12 9.015L29.08 10.695C29.215 10.935 29.035 11.25 28.75 11.25C26.68 11.25 25 12.93 25 15V19.5C25 21.57 26.68 23.25 28.75 23.25H32.5Z" fill="#9747FF"/>
<path d="M12.25 33C13.9069 33 15.25 31.6569 15.25 30C15.25 28.3431 13.9069 27 12.25 27C10.5931 27 9.25 28.3431 9.25 30C9.25 31.6569 10.5931 33 12.25 33Z" fill="#9747FF"/>
<path d="M24.25 33C25.9069 33 27.25 31.6569 27.25 30C27.25 28.3431 25.9069 27 24.25 27C22.5931 27 21.25 28.3431 21.25 30C21.25 31.6569 22.5931 33 24.25 33Z" fill="#9747FF"/>
<path d="M33.25 18.795V21H28.75C27.925 21 27.25 20.325 27.25 19.5V15C27.25 14.175 27.925 13.5 28.75 13.5H30.685L32.86 17.31C33.115 17.76 33.25 18.27 33.25 18.795Z" fill="#9747FF"/>
<path d="M19.87 3H8.785C5.725 3 3.25 5.475 3.25 8.535V18.12C3.25 18.945 3.925 19.62 4.75 19.62H18.475C20.005 19.62 21.25 18.375 21.25 16.845V4.38C21.25 3.615 20.635 3 19.87 3ZM14.32 11.865C14.32 12.255 14.11 12.63 13.78 12.825L11.905 13.95C11.71 14.07 11.515 14.115 11.32 14.115C10.945 14.115 10.57 13.92 10.36 13.575C10.03 13.035 10.21 12.345 10.735 12.03L12.07 11.235V9.615C12.07 9 12.58 8.49 13.195 8.49C13.81 8.49 14.32 9 14.32 9.615V11.865Z" fill="#9747FF"/>
</svg>
