<svg width="37" height="36" viewBox="0 0 37 36" fill="none" xmlns="http://www.w3.org/2000/svg">
<path d="M26.6497 7.96492L18.1747 3.40492C17.2747 2.92492 16.2097 2.92492 15.3097 3.40492L6.84973 7.96492C6.23473 8.30992 5.84473 8.96992 5.84473 9.68992C5.84473 10.4249 6.21973 11.0849 6.84973 11.4149L15.3247 15.9749C15.7747 16.2149 16.2697 16.3349 16.7497 16.3349C17.2297 16.3349 17.7397 16.2149 18.1747 15.9749L26.6497 11.4149C27.2647 11.0849 27.6547 10.4249 27.6547 9.68992C27.6547 8.96992 27.2647 8.30992 26.6497 7.96492Z" fill="#C19700"/>
<path d="M13.93 17.5649L6.055 13.6349C5.44 13.3199 4.75 13.3649 4.165 13.7099C3.595 14.0699 3.25 14.6849 3.25 15.3599V22.7999C3.25 24.0899 3.97 25.2449 5.125 25.8299L13 29.7599C13.27 29.8949 13.57 29.9699 13.87 29.9699C14.215 29.9699 14.575 29.8649 14.89 29.6849C15.46 29.3249 15.805 28.7099 15.805 28.0349V20.5949C15.79 19.3049 15.07 18.1499 13.93 17.5649Z" fill="#C19700"/>
<path d="M30.25 15.3599V19.0499C29.53 18.8399 28.765 18.7499 28 18.7499C25.96 18.7499 23.965 19.4549 22.39 20.7149C20.23 22.4099 19 24.9749 19 27.7499C19 28.4849 19.09 29.2199 19.285 29.9249C19.06 29.8949 18.835 29.8049 18.625 29.6699C18.055 29.3249 17.71 28.7099 17.71 28.0349V20.5949C17.71 19.3049 18.43 18.1499 19.57 17.5649L27.445 13.6349C28.06 13.3199 28.75 13.3649 29.335 13.7099C29.905 14.0699 30.25 14.6849 30.25 15.3599Z" fill="#C19700"/>
<path d="M33.25 23.55C33.25 23.535 33.235 23.52 33.22 23.505C33.16 23.415 33.085 23.325 33.01 23.25C32.995 23.235 32.98 23.205 32.965 23.19C31.75 21.84 29.965 21 28 21C26.11 21 24.385 21.78 23.155 23.04C21.97 24.255 21.25 25.92 21.25 27.75C21.25 29.01 21.61 30.21 22.225 31.23C22.555 31.785 22.975 32.295 23.455 32.715C23.485 32.73 23.5 32.745 23.515 32.76C23.59 32.835 23.665 32.895 23.755 32.97C23.755 32.97 23.755 32.97 23.77 32.97C23.785 32.985 23.8 33 23.815 33C24.94 33.945 26.395 34.5 28 34.5C30.46 34.5 32.605 33.18 33.775 31.23C34.12 30.645 34.39 30 34.555 29.325C34.69 28.815 34.75 28.29 34.75 27.75C34.75 26.16 34.195 24.69 33.25 23.55ZM30.52 28.845H29.125V30.3C29.125 30.915 28.615 31.425 28 31.425C27.385 31.425 26.875 30.915 26.875 30.3V28.845H25.48C24.865 28.845 24.355 28.335 24.355 27.72C24.355 27.105 24.865 26.595 25.48 26.595H26.875V25.26C26.875 24.645 27.385 24.135 28 24.135C28.615 24.135 29.125 24.645 29.125 25.26V26.595H30.52C31.135 26.595 31.645 27.105 31.645 27.72C31.645 28.335 31.15 28.845 30.52 28.845Z" fill="#C19700"/>
</svg>
