<svg width="36" height="36" viewBox="0 0 36 36" fill="none" xmlns="http://www.w3.org/2000/svg">
<path d="M26.3997 7.96492L17.9247 3.40492C17.0247 2.92492 15.9597 2.92492 15.0597 3.40492L6.59973 7.96492C5.98473 8.30992 5.59473 8.96992 5.59473 9.68992C5.59473 10.4249 5.96973 11.0849 6.59973 11.4149L15.0747 15.9749C15.5247 16.2149 16.0197 16.3349 16.4997 16.3349C16.9797 16.3349 17.4897 16.2149 17.9247 15.9749L26.3997 11.4149C27.0147 11.0849 27.4047 10.4249 27.4047 9.68992C27.4047 8.96992 27.0147 8.30992 26.3997 7.96492Z" fill="#0F0F0F"/>
<path d="M13.68 17.5649L5.805 13.6349C5.19 13.3199 4.5 13.3649 3.915 13.7099C3.345 14.0699 3 14.6849 3 15.3599V22.7999C3 24.0899 3.72 25.2449 4.875 25.8299L12.75 29.7599C13.02 29.8949 13.32 29.9699 13.62 29.9699C13.965 29.9699 14.325 29.8649 14.64 29.6849C15.21 29.3249 15.555 28.7099 15.555 28.0349V20.5949C15.54 19.3049 14.82 18.1499 13.68 17.5649Z" fill="#0F0F0F"/>
<path d="M30 15.3599V19.0499C29.28 18.8399 28.515 18.7499 27.75 18.7499C25.71 18.7499 23.715 19.4549 22.14 20.7149C19.98 22.4099 18.75 24.9749 18.75 27.7499C18.75 28.4849 18.84 29.2199 19.035 29.9249C18.81 29.8949 18.585 29.8049 18.375 29.6699C17.805 29.3249 17.46 28.7099 17.46 28.0349V20.5949C17.46 19.3049 18.18 18.1499 19.32 17.5649L27.195 13.6349C27.81 13.3199 28.5 13.3649 29.085 13.7099C29.655 14.0699 30 14.6849 30 15.3599Z" fill="#0F0F0F"/>
<path d="M33 23.55C33 23.535 32.985 23.52 32.97 23.505C32.91 23.415 32.835 23.325 32.76 23.25C32.745 23.235 32.73 23.205 32.715 23.19C31.5 21.84 29.715 21 27.75 21C25.86 21 24.135 21.78 22.905 23.04C21.72 24.255 21 25.92 21 27.75C21 29.01 21.36 30.21 21.975 31.23C22.305 31.785 22.725 32.295 23.205 32.715C23.235 32.73 23.25 32.745 23.265 32.76C23.34 32.835 23.415 32.895 23.505 32.97C23.505 32.97 23.505 32.97 23.52 32.97C23.535 32.985 23.55 33 23.565 33C24.69 33.945 26.145 34.5 27.75 34.5C30.21 34.5 32.355 33.18 33.525 31.23C33.87 30.645 34.14 30 34.305 29.325C34.44 28.815 34.5 28.29 34.5 27.75C34.5 26.16 33.945 24.69 33 23.55ZM30.27 28.845H28.875V30.3C28.875 30.915 28.365 31.425 27.75 31.425C27.135 31.425 26.625 30.915 26.625 30.3V28.845H25.23C24.615 28.845 24.105 28.335 24.105 27.72C24.105 27.105 24.615 26.595 25.23 26.595H26.625V25.26C26.625 24.645 27.135 24.135 27.75 24.135C28.365 24.135 28.875 24.645 28.875 25.26V26.595H30.27C30.885 26.595 31.395 27.105 31.395 27.72C31.395 28.335 30.9 28.845 30.27 28.845Z" fill="#0F0F0F"/>
</svg>
