<svg width="512" height="512" viewBox="0 0 512 512" fill="none" xmlns="http://www.w3.org/2000/svg">
<circle cx="256" cy="256" r="256" fill="#006C35"/>
<path fill-rule="evenodd" clip-rule="evenodd" d="M213.399 144C213.067 143.991 212.57 144.176 211.873 144.59C210.306 145.64 207.201 148.875 207.105 152.597C207.011 154.697 206.614 154.689 207.989 156.025C208.983 157.457 209.975 157.317 211.98 156.267C213.131 155.418 213.52 154.877 213.908 153.454C214.386 151.068 211.397 154.584 211.016 151.929C210.348 149.463 212.255 148.449 214.069 146.062C214.111 144.94 214.13 144.023 213.399 144ZM242.591 144.161C242.032 144.236 241.346 144.954 240.395 146.679C239.713 148.485 236.774 151.218 238.895 156.856C240.63 160.429 241.343 166.239 240.556 172.71C239.353 174.55 239.079 175.183 237.502 177.022C235.288 179.405 232.889 178.795 231.049 177.906C229.328 176.747 227.976 176.152 227.192 172.47C227.334 166.599 227.676 156.992 226.603 154.954C225.021 151.797 222.414 152.929 221.299 153.883C215.946 158.778 213.301 167.044 211.684 173.62C210.2 178.414 208.617 177.027 207.507 175.094C204.802 172.559 204.612 152.739 201.347 155.998C196.118 170.944 204.348 187.318 210.051 185.726C214.165 187.43 216.776 179.598 218.46 171.023C219.613 168.617 220.493 168.341 221.085 169.577C220.933 180.981 221.903 183.524 224.835 186.985C231.374 192.03 236.784 187.624 237.208 187.199L242.296 182.11C243.43 180.919 244.927 180.846 246.528 181.896C248.084 183.31 247.884 185.747 251.215 187.441C254.018 188.562 260.004 187.713 261.392 185.298C263.261 182.096 263.713 180.995 264.579 179.781C265.913 178.005 268.195 178.792 268.195 179.352C267.982 180.342 266.642 181.318 267.553 183.102C269.138 184.291 269.507 183.527 270.444 183.262C273.763 181.677 276.256 174.478 276.256 174.478C276.403 171.793 274.876 171.997 273.899 172.549C272.626 173.328 272.548 173.592 271.275 174.371C269.652 174.611 266.51 175.682 264.954 173.273C263.365 170.376 263.357 166.339 262.142 163.417C262.142 163.204 260.02 158.823 261.981 158.543C262.971 158.727 265.101 159.277 265.436 157.498C266.475 155.765 263.196 150.847 260.964 148.366C259.026 146.239 256.351 145.98 253.759 148.152C251.945 149.821 252.214 151.686 251.858 153.454C251.395 155.485 251.484 158.001 253.545 160.686C255.356 164.258 258.647 168.84 257.562 175.308C257.562 175.308 255.65 178.386 252.287 177.986C250.885 177.68 248.6 177.074 247.384 168.104C246.466 161.314 247.616 151.802 244.734 147.347C244.083 145.667 243.525 144.035 242.591 144.161ZM233.353 144.881C232.481 144.957 231.515 145.972 230.727 147.934C230.052 149.425 229.228 157.228 229.362 157.228C228.822 159.55 231.788 160.533 233.138 157.549C235.163 152.078 235.172 149.747 235.307 147.426C234.992 145.658 234.224 144.805 233.353 144.881ZM267.472 145.497C266.577 145.578 265.864 146.103 265.597 147.425C265.24 150.536 265.423 152.227 265.946 154.817C266.346 156.544 268.86 159.435 270.097 161.111C276.007 169.055 281.693 177.037 287.184 185.295C288.036 191.305 288.67 197.344 289.085 203.399C289.976 216.498 290.246 232.804 289.434 246.598C291.888 246.695 295.82 242.636 297.2 236.69C298.098 228.464 296.881 211.682 296.798 206.828C296.741 204.813 296.617 202.408 296.477 199.891C303.175 210.833 309.403 222.056 315.145 233.529C317.363 232.475 316.871 219.99 315.573 218.236C310.705 207.757 303.979 197.414 301.835 193.436C301.06 191.999 298.424 187.99 295.3 183.366C294.725 176.768 294.1 171.18 293.693 169.492C292.688 162.518 296.559 170.279 296.024 166.225C294.767 159.26 290.923 154.527 286.382 148.147C284.917 146.073 284.946 145.649 282.686 148.657C281.334 151.721 281.352 154.272 281.748 156.664C281.003 155.574 280.208 154.519 279.365 153.504C275.443 150.139 275.201 149.956 271.946 147.21C270.92 146.481 268.966 145.36 267.474 145.496L267.472 145.497ZM368.6 146.542C368.164 146.474 367.689 146.688 367.154 147.479C366.131 148.375 365.032 149.999 365.065 152.085C365.314 155.761 365.969 159.524 366.217 163.2C366.304 163.692 366.397 164.181 366.484 164.673C366.191 164.292 365.878 163.925 365.548 163.575C358.383 156.048 368.839 162.345 364.182 156.532C360.243 152.206 359.09 150.83 355.719 148.229C354.028 147.136 353.006 145.048 352.451 148.604C352.23 151.727 352 155.345 352.21 157.978C352.198 159.441 353.713 162.196 355.022 163.816C359.995 169.937 364.852 176.152 369.591 182.457C370.624 195.754 370.9 207.944 371.948 221.263C371.8 226.96 370.047 234.526 368.386 235.243C368.386 235.243 365.849 236.7 364.154 235.083C362.922 234.587 357.995 226.86 357.995 226.86C355.473 224.548 353.79 225.209 351.996 226.86C347.046 231.64 344.807 240.592 341.444 246.76C340.577 248.135 338.134 249.307 335.418 246.652C328.52 237.229 332.554 223.815 331.695 227.262C325.552 234.185 328.273 245.658 329.66 248.126C331.686 252.178 333.325 254.772 337.266 256.776C340.856 259.419 343.651 257.77 345.194 255.919C348.806 252.175 348.854 242.601 350.55 240.707C351.739 237.228 354.72 237.826 356.174 239.368C357.583 241.394 359.246 242.712 361.316 243.814C364.686 246.786 368.708 247.326 372.671 244.617C375.38 243.097 377.138 241.123 378.724 237.225C380.426 232.674 379.585 208.822 379.206 195.553C381.751 199.138 384.263 202.8 386.759 206.506C387.854 218.154 388.351 229.625 387.991 240.626C387.733 242.813 395.624 234.095 395.57 229.966C395.535 226.354 395.577 223.079 395.57 220.03C399.397 226.14 403.103 232.354 406.604 238.644C408.774 237.494 408.03 225.207 406.658 223.512C402.992 217.36 398.296 210.712 394.66 205.568C393.941 199.076 392.963 191.417 392.517 189.07C391.823 185.411 391.129 179.915 390.08 175.572C389.792 173.877 388.924 168.461 389.196 167.939C389.624 166.728 391.239 167.978 392.035 166.573C393.226 165.275 387.906 151.492 385.205 147.558C384.235 145.795 382.479 146.405 380.305 149.272C378.288 151.159 379.026 155.463 379.796 159.556C381.795 169.989 383.579 180.615 384.991 191.213C382.038 186.819 379.056 182.444 376.045 178.09C375.961 177.653 375.644 176.05 375.644 176.028C375.644 175.84 375.211 167.493 374.84 165.504C374.776 164.696 374.583 164.463 375.43 164.565C376.327 165.32 376.45 165.362 377.009 165.611C377.916 165.776 378.708 164.244 378.161 162.826C375.359 157.655 372.555 152.462 369.752 147.291C369.415 146.96 369.037 146.61 368.6 146.542ZM107.612 146.81C106.059 146.765 104.345 147.728 105.015 149.595C104.625 150.612 108.055 154.051 108.657 155.942C109.197 157.288 108.121 161.622 109.246 162.022C110.28 162.47 111.704 159.021 112.245 155.834C112.545 154.089 112.318 148.115 108.255 146.889C108.044 146.842 107.829 146.816 107.612 146.81ZM404.921 146.844C404.567 146.878 404.136 147.451 403.475 148.852C401.885 151.456 401.339 156.118 401.975 160.234C405.802 186.119 408.645 211.184 409.233 234.126C408.903 236.303 408.807 237.462 407.787 240.205C405.528 243.101 403.036 246.73 400.69 248.48C398.343 250.23 393.35 251.897 391.717 253.194C386.538 256.188 386.512 259.631 390.699 259.756C397.916 258.918 406.457 258.326 412.339 249.445C413.914 246.957 415.767 240.21 415.848 236.081C416.398 211.873 415.538 188.203 411.911 170.707C411.678 169.001 410.925 165.085 411.215 164.573C411.682 163.375 414.043 164.693 414.883 163.315C416.117 162.055 408.777 152.657 406.206 148.639C405.692 147.629 405.376 146.799 404.921 146.844ZM329.236 147.245C328.938 147.296 328.498 147.751 327.683 148.825C325.666 155.418 324.958 160.8 325.727 164.894C330.906 191.92 336.212 216.541 335.369 242.267C337.825 242.284 340.664 236.649 341.877 231.073C342.541 223.391 341.434 218.715 341.234 214.2C341.035 209.685 336.123 173.051 335.128 169.635C333.928 163.175 339.905 168.785 339.253 165.028C337.186 160.292 332.028 153.395 330.415 149.28C329.808 148.178 329.733 147.159 329.237 147.245H329.236ZM144.951 147.754C144.314 147.865 143.7 148.388 143.478 149.254C143.338 149.82 143.723 150.763 143.21 151.048C142.916 151.346 141.798 151.146 141.844 149.575C141.844 149.075 141.477 148.553 141.255 148.237C141.032 148.091 140.882 148.048 140.478 148.048C139.987 148.069 139.998 148.198 139.728 148.611C139.608 149.031 139.454 149.442 139.454 149.922C139.393 150.481 139.169 150.671 138.758 150.753C138.298 150.753 138.407 150.803 138.035 150.565C137.814 150.323 137.552 150.228 137.552 149.815C137.552 149.388 137.441 148.705 137.312 148.423C137.116 148.165 136.808 148.031 136.455 147.941C134.529 147.948 134.389 150.161 134.5 150.994C134.356 151.15 134.284 155.073 136.91 156.162C140.435 157.844 147.046 157.132 146.765 151.449C146.765 150.946 146.655 149.258 146.605 148.797C146.245 147.96 145.581 147.643 144.944 147.753L144.951 147.754ZM192.248 147.808C191.126 147.87 190.03 148.171 189.034 148.691C186.698 150.928 186.15 154.515 187.99 156.753C189.781 157.599 191.567 159.401 190.373 160.395C185.31 165.804 172.13 174.842 171.465 176.491C171.46 176.505 171.442 176.532 171.44 176.544C171.437 176.556 171.44 176.587 171.44 176.598C171.44 176.603 171.438 176.62 171.44 176.624C171.446 176.643 171.455 176.662 171.465 176.678C171.469 176.682 171.489 176.702 171.493 176.704C171.497 176.708 171.514 176.702 171.519 176.704C171.525 176.708 171.54 176.73 171.546 176.732C171.552 176.733 171.566 176.73 171.573 176.732L171.599 176.758C172.269 177.207 180.516 177.197 181.429 176.785C181.435 176.781 181.45 176.762 181.455 176.759C181.458 176.756 181.481 176.76 181.482 176.759C181.484 176.756 181.481 176.733 181.482 176.732C184.316 175.687 197.766 160.315 197.766 160.315C197.068 159.718 196.426 159.278 195.73 158.681C194.984 158.035 195.059 157.4 195.73 156.753C199.061 154.814 198.006 150.55 196.266 148.611C194.824 147.964 193.467 147.746 192.248 147.808ZM315.873 147.861C315.519 147.896 315.088 148.441 314.427 149.843C312.838 152.446 311.758 156.981 311.882 161.225C315.326 185.063 316.381 205.923 318.632 229.761C318.814 232.066 318.477 235.415 316.944 236.75C311.276 242.669 303.103 249.969 294.207 253.329C293.25 254.403 296.587 258.984 300.902 258.98C308.12 258.142 314.463 254.09 320.346 243.42C321.919 240.931 324.684 235.604 324.766 231.475C325.316 207.266 323.545 188.444 319.917 170.948C319.686 169.243 319.844 167.227 320.132 166.716C320.6 166.158 322.184 166.728 323.024 165.35C324.258 164.09 319.73 153.647 317.16 149.628C316.645 148.62 316.328 147.816 315.874 147.861H315.873ZM124.355 148.59C123.359 148.706 122.422 149.517 121.972 150.599C121.805 154.422 121.783 158.243 122.213 161.765C123.952 167.946 124.503 173.382 125.346 179.711C125.58 188.187 120.451 183.377 120.686 179.175C121.871 173.716 121.551 165.123 120.499 162.945C119.664 160.767 118.698 160.23 116.668 160.588C115.057 160.489 110.896 165.024 109.732 172.533C109.732 172.533 108.763 176.386 108.339 179.818C107.77 183.695 105.202 186.442 103.411 179.282C101.864 174.078 100.914 161.257 98.3231 164.258C97.581 174.268 96.6999 191.884 105.206 193.691C115.494 194.68 109.811 176.299 113.535 172.962C114.239 171.313 115.544 171.283 115.651 173.364V188.978C115.557 194.053 118.897 195.561 121.489 196.61C124.187 196.402 125.976 196.476 127.033 199.101C127.455 208.101 127.897 217.124 128.319 226.123C128.319 226.123 134.555 227.915 134.854 210.938C135.153 200.969 132.869 192.604 134.211 190.664C134.258 188.759 136.701 188.665 138.389 189.593C141.078 191.489 142.271 193.824 146.45 192.887C152.809 191.136 156.64 188.049 156.734 183.165C156.363 178.525 155.826 173.879 153.815 169.239C154.096 168.395 152.598 166.199 152.878 165.356C154.021 167.145 155.749 166.997 156.145 165.356C155.063 161.789 153.377 158.371 150.655 156.892C148.405 154.909 145.112 155.329 143.906 159.464C143.347 164.227 145.632 169.874 149.102 174.487C149.839 176.29 150.869 179.289 150.414 181.986C148.568 183.04 146.737 182.601 145.191 180.969C145.191 180.969 140.129 177.18 140.129 176.336C141.473 167.735 140.419 166.751 139.674 164.363C139.154 161.07 137.593 160.027 136.327 157.775C135.06 156.433 133.343 156.433 132.523 157.775C130.287 161.654 131.336 169.981 132.952 173.711C134.12 177.141 135.911 179.281 135.069 179.281C134.374 181.22 132.925 180.769 131.881 178.531C130.389 173.908 130.086 167.016 130.086 163.909C129.639 160.057 129.14 151.829 126.605 149.742C125.928 148.82 125.13 148.499 124.355 148.59ZM160.484 148.644C159.973 148.708 159.409 148.998 158.743 149.152C156.556 149.849 154.508 151.739 155.154 155.419C157.739 171.13 159.425 183.121 162.01 198.832C162.408 200.672 160.865 203.098 158.877 202.849C155.496 200.562 154.657 195.93 148.887 196.128C144.711 196.177 139.949 200.722 139.353 205.1C138.657 208.578 138.409 212.35 139.353 215.384C142.288 218.913 145.805 218.537 148.887 217.741C151.422 216.697 153.508 214.199 154.405 214.794C154.407 214.797 154.429 214.791 154.43 214.794C154.434 214.798 154.429 214.818 154.43 214.821C154.984 215.788 154.379 223.959 142.486 230.274C135.178 233.556 129.36 234.34 126.229 228.372C124.29 224.644 126.37 210.44 121.596 213.722C107.477 250.117 154.676 255.198 159.948 215.222C160.289 214.095 161.329 212.963 162.063 213.241C162.385 213.378 162.68 213.815 162.786 214.633C161.692 250.83 126.272 253.311 120.257 241.924C118.766 239.24 118.317 233.266 118.168 229.685C117.895 227.519 117.352 226.27 116.722 225.775C115.287 224.696 113.358 227.508 112.946 232.391C112.348 236.318 112.517 237.396 112.517 241.175C114.406 269.764 159.986 257.48 167.393 233.863C171.06 221.654 167.318 212.444 168.545 211.313C168.555 211.305 168.588 211.294 168.598 211.287L168.652 211.26C168.665 211.255 168.691 211.237 168.705 211.233C168.758 211.218 168.812 211.21 168.866 211.207C173.391 216.08 179.74 211.826 181.132 210.136C181.728 209.289 183.221 208.747 184.265 209.84C187.794 212.377 193.981 211.181 195.273 206.707C196.018 202.332 196.65 197.828 196.799 193.156C194.5 193.869 192.645 194.404 191.898 195.191C191.72 195.386 191.589 195.601 191.55 195.834C191.35 197.128 191.16 198.424 190.961 199.717C190.939 199.824 190.905 199.923 190.854 200.012C190.745 200.178 190.598 200.316 190.425 200.414C189.612 200.858 188.194 200.604 188.122 199.423C187.028 194.45 182.528 193.803 179.792 201.511C177.952 203.003 174.598 203.294 174.249 201.056C174.696 195.885 172.612 195.192 168.437 197.628C167.095 187.386 165.763 177.607 164.42 167.365C166.16 167.315 167.756 168.577 169.348 166.589C167.625 161.233 163.983 150.337 161.929 149.315C161.912 149.306 161.892 149.294 161.875 149.288C161.748 149.139 161.604 149.004 161.447 148.885C161.409 148.86 161.351 148.827 161.313 148.806C161.227 148.761 161.138 148.725 161.045 148.699C160.863 148.642 160.672 148.624 160.483 148.645L160.484 148.644ZM301.326 148.723C299.52 148.67 297.521 149.808 298.3 152.071C297.846 153.305 302.181 157.492 302.88 159.784C304.137 163.306 301.919 166.664 303.228 167.149C304.432 167.693 306.107 163.515 306.736 159.65C307.462 156.527 305.234 150.125 302.076 148.804C301.829 148.752 301.578 148.725 301.326 148.723ZM191.602 152.58C192.425 152.496 193.419 153.252 193.906 154.321C194.424 155.46 194.164 156.551 193.316 156.758C192.468 156.966 191.371 156.211 190.852 155.07C190.333 153.931 190.593 152.815 191.442 152.607C191.494 152.594 191.547 152.586 191.602 152.581V152.58ZM395.144 157.856C393.498 157.798 391.702 159.049 392.413 161.498C392 162.835 395.926 167.374 396.563 169.854C397.137 171.62 395.692 177.31 396.885 177.835C397.982 178.423 399.526 173.904 400.098 169.72C400.416 167.43 398.72 159.394 395.841 157.963C395.613 157.9 395.38 157.864 395.144 157.856ZM282.609 160.641C282.76 161.313 282.91 161.989 283.011 162.677C283.348 164.161 283.639 165.635 283.948 167.096C282.648 165.306 281.572 163.859 281.109 163.347C278.168 159.85 281.175 161.051 282.609 160.641ZM308.534 173.389C307.897 173.501 307.282 174.051 307.06 174.916C306.921 175.482 307.333 176.399 306.82 176.684C306.525 176.981 305.38 176.808 305.427 175.238C305.427 174.737 305.059 174.189 304.837 173.872C304.615 173.726 304.465 173.684 304.061 173.684C303.57 173.704 303.581 173.834 303.311 174.246C303.197 174.667 303.044 175.082 303.044 175.559C302.982 176.118 302.785 176.307 302.373 176.389C301.914 176.389 301.996 176.439 301.624 176.202C301.402 175.959 301.142 175.864 301.142 175.452C301.142 175.024 301.03 174.341 300.901 174.059C300.706 173.802 300.397 173.694 300.044 173.604C298.118 173.61 298.004 175.797 298.116 176.63C297.971 176.787 297.873 180.736 300.498 181.826C304.024 183.506 310.662 182.769 310.381 177.086C310.381 176.583 310.244 174.894 310.194 174.434C309.834 173.596 309.17 173.28 308.534 173.389ZM190.162 174.568C189.728 174.524 189.158 174.683 188.502 175.077C185.384 176.763 184.177 181.765 186.118 184.692C187.931 187.27 190.798 186.325 191.18 186.325C194.235 186.707 196.054 180.594 196.054 180.594C196.054 180.594 196.146 178.875 192.519 182.121C190.993 182.407 190.785 181.855 190.403 180.996C190.086 179.406 190.154 177.793 190.886 176.202C191.223 175.248 190.887 174.641 190.162 174.568ZM357.495 175.345C355.764 175.261 353.922 176.382 353.451 178.746C353.458 180.141 354.081 180.908 353.96 182.175C353.78 182.898 353.034 183.374 351.255 182.523C351.533 182.266 350.103 180.246 350.103 180.246C348.716 179.401 346.864 180.292 345.657 181.076C344.994 182.282 344.504 184.35 345.256 186.459C347.247 190.138 354.077 196.416 357.335 196.476C357.395 193.159 357.717 188.748 357.897 186.004C357.974 184.968 358.217 183.827 359.209 183.567C360.201 183.308 361.922 184.565 361.941 183.487C361.761 181.377 361.339 178.262 360.147 176.791C359.536 175.887 358.534 175.396 357.495 175.345ZM218.984 186.888C218.937 186.905 218.892 186.944 218.85 186.968C218.829 186.981 218.79 187.006 218.769 187.022C218.425 187.281 218.018 187.878 217.109 188.522C215.575 190.266 215.301 191.48 215.395 194.976C215.482 195.346 218.306 203.196 220.698 208.715C222.311 214.451 223.803 221.018 222.707 227.221C218.931 235.422 211.34 242.776 204.013 246.772C200.28 247.967 197.056 247.56 196.193 246.745L196.166 246.718C194.022 245.277 193.972 242.711 194.104 242.272V242.246L194.131 242.219C200.313 237.913 207.375 234.427 212.905 222.802C214.538 218.36 215.035 215.692 213.413 208.823C212.781 206.263 212 204.156 210.253 202.341L210.28 202.315C211.332 201.811 214.063 203.823 214.484 202.555C213.838 199.276 211.617 194.872 209.102 192.619C206.899 190.619 204.503 190.387 202.486 192.218C200.215 193.481 199.733 198.02 200.826 201.993C202.04 204.984 205.319 205.508 207.656 211.527V211.553C207.704 211.931 208.457 216.047 207.28 217.713C206.326 220.691 194.062 230.363 193.193 230.944C193.183 230.954 193.121 230.989 193.112 230.998L193.086 231.025C193.083 231.026 193.065 231.045 193.059 231.051L193.032 231.078H192.978C192.97 231.069 192.961 231.061 192.953 231.052V231.025C192.947 231.016 192.93 230.981 192.925 230.971C192.888 230.73 192.954 230.114 192.925 229.123C192.845 227.311 193.595 223.211 193.541 222.508V222.482L193.515 222.454V222.428H193.487C189.434 225.045 188.095 233.069 187.355 235.444C177.092 242.535 165.437 247.811 158.725 254.995C155.229 260.454 182.811 248.726 186.016 247.308C186.043 247.329 186.071 247.362 186.096 247.389C186.705 248.059 186.757 250.397 188.587 252.504C191.454 256.387 197.548 258.779 203.478 257.297C213.422 253.703 219.151 246.926 224.984 239.407C225.818 238.194 227.124 237.239 228.331 238.176C232.34 247.149 243.896 253.533 258.836 254.192C262.293 249.987 260.64 247.92 259.238 247.041C258.806 246.754 251.808 244.026 250.721 241.31C250.037 238.782 251.7 236.54 255.033 234.855C264.626 233.695 274.056 232.406 283.181 229.473C283.274 226.406 285.08 221.821 286.288 219.831C287.127 218.449 287.666 218.312 287.867 218.117L287.895 218.09C287.898 218.086 287.919 218.067 287.921 218.063C287.927 218.059 287.944 218.041 287.948 218.037V217.983C287.953 217.923 287.948 217.817 287.921 217.715L286.368 216.804L255.756 216.67C255.379 216.525 255.097 216.379 254.926 216.242C254.913 216.231 254.883 216.199 254.872 216.188L254.846 216.162L254.819 216.135C254.815 216.125 254.796 216.09 254.793 216.081L254.765 216.055V216.028L254.739 216.001V215.975V215.947V215.894V215.867V215.841V215.813V215.788C254.744 215.782 254.761 215.765 254.765 215.76C254.772 215.747 254.782 215.721 254.793 215.707C254.942 215.506 255.304 215.315 255.757 215.144C263.066 214.148 276.053 212.019 276.915 199.53C276.779 193.025 274.13 188.766 266.149 187.585C260.283 188.039 256.1 193.713 256.775 199.959C256.494 201.641 257.344 204.941 255.623 205.315C244.372 206.343 232.092 213.392 231.68 218.438H231.653L231.626 218.464L231.572 218.492H231.518C231.501 218.498 231.457 218.513 231.439 218.517H231.358C231.331 218.518 231.305 218.518 231.278 218.517C231.249 218.512 231.196 218.498 231.171 218.492C230.439 218.288 229.496 217.08 229.644 215.385C229.216 206.663 226.377 196.794 221.931 189.193C220.345 187.606 219.653 186.964 219.2 186.889C219.184 186.887 219.16 186.89 219.146 186.889H218.985L218.984 186.888ZM248.284 191.495C247.647 191.604 247.032 192.129 246.81 192.994C246.671 193.56 247.083 194.503 246.569 194.788C246.275 195.086 245.13 194.912 245.177 193.342C245.177 192.842 244.809 192.293 244.587 191.976C244.364 191.831 244.241 191.789 243.837 191.789C243.346 191.809 243.331 191.939 243.061 192.352C242.947 192.772 242.793 193.187 242.793 193.663C242.732 194.223 242.535 194.412 242.123 194.494C241.664 194.494 241.773 194.544 241.401 194.306C241.18 194.065 240.892 193.97 240.892 193.557C240.892 193.129 240.806 192.447 240.677 192.164C240.482 191.907 240.146 191.799 239.794 191.709C237.868 191.716 237.754 193.901 237.866 194.734C237.721 194.892 237.623 198.84 240.249 199.93C243.774 201.612 252.175 200.622 250.131 195.191C250.131 194.688 249.994 193 249.944 192.538C249.584 191.701 248.919 191.384 248.284 191.495ZM366.526 196.342C366.428 196.325 366.326 196.334 366.232 196.369C366.232 196.369 349.898 207.99 349.494 208.393C347.874 209.833 348.684 214.897 349.494 214.312C350.664 214.762 367.108 203.618 366.795 202.314C367.512 202.356 367.856 196.581 366.526 196.342ZM263.718 198.065C264.385 197.993 265.259 198.22 266.102 198.707C267.321 199.413 268.073 200.478 267.977 201.252C267.974 201.272 267.981 201.312 267.977 201.331C267.972 201.352 267.929 201.391 267.923 201.412C267.916 201.432 267.904 201.473 267.896 201.493C267.891 201.505 267.876 201.534 267.87 201.546L267.843 201.6C267.797 201.668 267.743 201.731 267.682 201.787C267.096 202.334 265.744 202.256 264.468 201.519C263.26 200.821 262.514 199.747 262.594 198.975C262.597 198.954 262.616 198.915 262.62 198.895C262.64 198.799 262.679 198.712 262.728 198.627C262.745 198.597 262.76 198.547 262.781 198.52L262.808 198.493C262.849 198.445 262.894 198.4 262.942 198.359C263.136 198.206 263.412 198.097 263.718 198.065ZM120.673 201.01C112.209 201.164 99.8152 212.104 99.4887 218.177C108.42 213.889 117.192 209.761 126.271 205.322C124.805 203.135 126.181 201.164 120.673 201.011V201.01ZM148.098 204.814C148.928 204.822 149.803 205.233 150.267 206.394C150.685 207.458 150.287 208.572 149.785 209.125C149.783 209.13 149.788 209.148 149.785 209.152C149.777 209.165 149.767 209.195 149.759 209.206C149.403 209.663 148.156 209.473 147.268 209.473C146.193 209.426 145.663 209.25 145.018 208.376C144.709 207.403 145.649 206.449 146.063 205.724C146.067 205.717 146.085 205.704 146.089 205.698C146.135 205.629 146.207 205.549 146.278 205.484C146.598 205.189 147.154 204.914 147.75 204.841C147.866 204.826 147.98 204.812 148.098 204.814ZM363.347 208.182C361.842 208.367 360.412 209.79 361.071 212.065C360.658 213.402 363.112 218.074 363.749 220.554C364.321 222.32 363.012 227.315 364.204 227.839C365.302 228.428 368.189 224.875 368.087 220.421C368.405 218.131 367.27 209.693 364.392 208.261C364.052 208.167 363.697 208.139 363.347 208.181V208.182ZM180.536 216.43C179.206 216.523 178.019 217.234 178.555 219.109C178.474 220.468 182.313 222.121 182.545 225.268C183.093 226.566 181.724 230.72 182.866 231.107C183.915 231.539 185.37 228.235 185.919 225.161C186.223 223.478 184.603 217.589 181.848 216.538C181.418 216.441 180.976 216.405 180.536 216.43ZM235.252 223.903C235.353 223.896 235.442 223.903 235.546 223.903H235.6C239.011 224.829 244.038 224.925 248.402 225.375C251.957 225.601 253.713 228.383 250.384 229.553C247.1 230.678 243.944 231.557 243.93 236.302C244.361 238.654 244.27 239.887 243.902 240.454C243.874 240.496 243.828 240.553 243.795 240.588L243.77 240.614L243.742 240.641L243.716 240.668L243.689 240.694L243.635 240.722C243.584 240.753 243.531 240.78 243.475 240.802C243.428 240.817 243.362 240.82 243.314 240.828C242.534 240.943 241.399 240.198 240.555 239.757C238.531 238.303 232.848 234.782 232.039 227.223C231.923 225.517 233.2 224.047 235.253 223.902L235.252 223.903ZM101.608 229.713C101.395 229.721 100.969 230.358 100.403 231.08C95.3681 239.102 94.9199 251.075 97.6984 254.648C99.1742 256.337 101.608 257.078 103.403 256.549C106.565 255.178 107.956 248.77 107.205 246.426C106.15 244.774 105.314 244.512 104.26 245.918C102.033 250.437 101.107 247.346 100.912 244.82C100.57 240.029 101.035 235.619 101.555 232.126C101.832 230.335 101.821 229.709 101.608 229.715V229.713ZM273.149 240.246C272.742 240.221 272.335 240.305 271.971 240.488C271.891 240.488 268.366 242.872 267.23 244.532C266.537 245.059 266.616 245.518 266.829 246.434C267.368 247.675 268.32 247.286 269.4 246.701C270.833 246.506 271.525 247.444 271.408 249.165C270.747 251.311 271.703 252.111 271.703 252.245C271.703 252.38 273.083 253.565 274.703 252.621C278.121 251.315 280.252 250.045 285.04 249.004C286.297 248.98 286.224 245.616 284.236 245.496C281.643 245.627 279.25 245.759 276.657 247.799C275.062 248.168 274.789 247.197 274.435 246.327C274.029 244.166 275.346 242.643 275.077 241.023C275.148 241.095 274.272 240.306 273.149 240.246ZM382.985 244.344C382.349 244.364 381.679 244.452 380.708 244.532C379.659 244.755 379.293 245.214 379.101 246.487C379.177 248.417 380.357 248.321 381.565 249.085C382.265 249.976 382.72 250.782 381.511 252.245C380.366 253.294 379.551 253.874 378.405 254.923C377.865 255.846 377.527 257.263 379.182 257.709C382.236 258.568 389.305 253.975 389.305 253.879C390.45 253.02 390.07 251.388 389.974 251.388C389.307 250.625 387.799 251.083 386.787 250.96C386.306 250.96 384.722 250.725 385.475 249.326C386.103 248.456 386.335 247.934 386.761 246.862C387.237 245.813 386.818 245.105 385.1 244.531C384.226 244.373 383.621 244.325 382.985 244.344ZM337.1 337.245C337.093 337.249 337.08 337.268 337.073 337.272C331.993 338.575 332.151 343.849 335.412 346.163C281.768 346.163 199.446 345.253 181.792 345.253C171.915 345.253 140.666 344.075 140.065 344.075C146.767 353.877 156.474 355.873 169.178 356.073C193.004 356.073 303.404 355.778 334.823 355.778C332.588 359.745 335.025 366.126 336.777 367.295C336.814 367.319 336.874 367.357 336.911 367.376C336.976 367.408 337.063 367.44 337.126 367.455C337.146 367.46 337.186 367.453 337.205 367.455C339.286 367.946 340.201 366.441 340.902 365.34C344.276 365.637 363.267 365.912 365.005 365.313C365.011 365.31 365.026 365.289 365.032 365.287C366.208 367.016 367.374 368.652 369.612 368.366C373.527 367.526 376.611 367.1 376.709 359.153C376.709 359.153 376.308 345.611 367.415 346.459C365.311 346.777 359.407 347.37 359.407 347.37C352.576 346.557 347.564 346.474 339.884 346.192C340.593 345.292 341.844 341.646 340.313 340.326C339.913 339.994 339.317 339.809 338.491 339.871H338.465C338.453 339.87 338.422 339.873 338.411 339.871C338.405 339.87 338.39 339.846 338.384 339.844C338.362 339.836 338.325 339.83 338.304 339.818C338.254 339.779 338.209 339.734 338.169 339.684C338.161 339.672 338.126 339.642 338.116 339.63C337.728 339.064 337.516 337.678 337.259 337.327L337.233 337.3L337.206 337.273C337.189 337.263 337.171 337.254 337.152 337.247H337.126C337.122 337.247 337.102 337.245 337.099 337.247L337.1 337.245ZM340.742 356.609C340.751 356.605 340.759 356.613 340.769 356.609C348.595 356.991 355.948 356.683 363.775 357.064C365.016 358.118 364.395 360.534 363.587 360.974C363.544 360.996 363.499 361.014 363.453 361.028C363.424 361.034 363.376 361.028 363.346 361.028C363.317 361.028 363.269 361.034 363.239 361.028C360.694 360.964 359.222 360.904 356.678 360.841C356.676 360.714 356.658 360.588 356.624 360.465C356.021 358.679 351.653 358.798 350.624 360.198L350.571 360.278C350.554 360.306 350.532 360.357 350.517 360.385C350.501 360.422 350.476 360.482 350.464 360.519C350.448 360.572 350.444 360.651 350.438 360.706C350.431 360.771 350.405 360.853 350.411 360.92C346.975 361.334 343.883 360.806 340.448 360.681C339.439 359.425 339.557 357.155 340.742 356.61V356.609Z" fill="white"/>
</svg>
