<svg width="17" height="16" viewBox="0 0 17 16" fill="none" xmlns="http://www.w3.org/2000/svg">
<path d="M14.5471 3.48634C13.4738 3.37967 12.4004 3.29967 11.3204 3.23967V3.23301L11.1738 2.36634C11.0738 1.75301 10.9271 0.833008 9.3671 0.833008H7.62043C6.0671 0.833008 5.92043 1.71301 5.81376 2.35967L5.67376 3.21301C5.05376 3.25301 4.43376 3.29301 3.81376 3.35301L2.45376 3.48634C2.17376 3.51301 1.97376 3.75967 2.00043 4.03301C2.0271 4.30634 2.2671 4.50634 2.5471 4.47967L3.9071 4.34634C7.40043 3.99967 10.9204 4.13301 14.4538 4.48634C14.4738 4.48634 14.4871 4.48634 14.5071 4.48634C14.7604 4.48634 14.9804 4.29301 15.0071 4.03301C15.0271 3.75967 14.8271 3.51301 14.5471 3.48634Z" fill="#DB1D1D"/>
<path d="M13.3202 5.42699C13.1602 5.26033 12.9402 5.16699 12.7135 5.16699H4.28683C4.06016 5.16699 3.83349 5.26033 3.68016 5.42699C3.52683 5.59366 3.44016 5.82033 3.45349 6.05366L3.86683 12.8937C3.94016 13.907 4.03349 15.1737 6.36016 15.1737H10.6402C12.9668 15.1737 13.0602 13.9137 13.1335 12.8937L13.5468 6.06033C13.5602 5.82033 13.4735 5.59366 13.3202 5.42699ZM9.60682 11.8337H7.38683C7.11349 11.8337 6.88683 11.607 6.88683 11.3337C6.88683 11.0603 7.11349 10.8337 7.38683 10.8337H9.60682C9.88016 10.8337 10.1068 11.0603 10.1068 11.3337C10.1068 11.607 9.88016 11.8337 9.60682 11.8337ZM10.1668 9.16699H6.83349C6.56016 9.16699 6.33349 8.94033 6.33349 8.66699C6.33349 8.39366 6.56016 8.16699 6.83349 8.16699H10.1668C10.4402 8.16699 10.6668 8.39366 10.6668 8.66699C10.6668 8.94033 10.4402 9.16699 10.1668 9.16699Z" fill="#DB1D1D"/>
</svg>
