<svg width="37" height="36" viewBox="0 0 37 36" fill="none" xmlns="http://www.w3.org/2000/svg">
<path d="M32.75 23.25C33.17 23.25 33.5 23.58 33.5 24V25.5C33.5 27.99 31.49 30 29 30C29 27.525 26.975 25.5 24.5 25.5C22.025 25.5 20 27.525 20 30H17C17 27.525 14.975 25.5 12.5 25.5C10.025 25.5 8 27.525 8 30C5.51 30 3.5 27.99 3.5 25.5V22.5C3.5 21.675 4.175 21 5 21H19.25C21.32 21 23 19.32 23 17.25V9C23 8.175 23.675 7.5 24.5 7.5H25.76C26.84 7.5 27.83 8.085 28.37 9.015L29.33 10.695C29.465 10.935 29.285 11.25 29 11.25C26.93 11.25 25.25 12.93 25.25 15V19.5C25.25 21.57 26.93 23.25 29 23.25H32.75Z" fill="#DB1D1D"/>
<path d="M12.5 33C14.1569 33 15.5 31.6569 15.5 30C15.5 28.3431 14.1569 27 12.5 27C10.8431 27 9.5 28.3431 9.5 30C9.5 31.6569 10.8431 33 12.5 33Z" fill="#DB1D1D"/>
<path d="M24.5 33C26.1569 33 27.5 31.6569 27.5 30C27.5 28.3431 26.1569 27 24.5 27C22.8431 27 21.5 28.3431 21.5 30C21.5 31.6569 22.8431 33 24.5 33Z" fill="#DB1D1D"/>
<path d="M33.5 18.795V21H29C28.175 21 27.5 20.325 27.5 19.5V15C27.5 14.175 28.175 13.5 29 13.5H30.935L33.11 17.31C33.365 17.76 33.5 18.27 33.5 18.795Z" fill="#DB1D1D"/>
<path d="M20.12 2.96973H9.035C5.975 2.96973 3.5 5.44473 3.5 8.50473V18.0897C3.5 18.9147 4.175 19.5897 5 19.5897H18.725C20.255 19.5897 21.5 18.3447 21.5 16.8147V4.34973C21.5 3.58473 20.885 2.96973 20.12 2.96973ZM14.9 13.6497C14.675 13.8597 14.39 13.9647 14.105 13.9647C13.82 13.9647 13.535 13.8597 13.31 13.6497L12.515 12.8547L11.69 13.6797C11.465 13.9047 11.18 14.0097 10.895 14.0097C10.61 14.0097 10.325 13.9047 10.1 13.6797C9.665 13.2447 9.665 12.5247 10.1 12.0897L10.925 11.2647L10.13 10.4697C9.695 10.0347 9.695 9.31473 10.13 8.87973C10.58 8.44473 11.285 8.44473 11.735 8.87973L12.515 9.67473L13.265 8.90973C13.715 8.47473 14.42 8.47473 14.87 8.90973C15.305 9.35973 15.305 10.0647 14.87 10.5147L14.105 11.2647L14.9 12.0447C15.335 12.4947 15.335 13.1997 14.9 13.6497Z" fill="#DB1D1D"/>
</svg>
