<svg width="36" height="36" viewBox="0 0 36 36" fill="none" xmlns="http://www.w3.org/2000/svg">
<path d="M26.3997 7.96492L17.9247 3.40492C17.0247 2.92492 15.9597 2.92492 15.0597 3.40492L6.59973 7.96492C5.98473 8.30992 5.59473 8.96992 5.59473 9.68992C5.59473 10.4249 5.96973 11.0849 6.59973 11.4149L15.0747 15.9749C15.5247 16.2149 16.0197 16.3349 16.4997 16.3349C16.9797 16.3349 17.4897 16.2149 17.9247 15.9749L26.3997 11.4149C27.0147 11.0849 27.4047 10.4249 27.4047 9.68992C27.4047 8.96992 27.0147 8.30992 26.3997 7.96492Z" fill="#16AD64"/>
<path d="M13.68 17.5649L5.805 13.6349C5.19 13.3199 4.5 13.3649 3.915 13.7099C3.345 14.0699 3 14.6849 3 15.3599V22.7999C3 24.0899 3.72 25.2449 4.875 25.8299L12.75 29.7599C13.02 29.8949 13.32 29.9699 13.62 29.9699C13.965 29.9699 14.325 29.8649 14.64 29.6849C15.21 29.3249 15.555 28.7099 15.555 28.0349V20.5949C15.54 19.3049 14.82 18.1499 13.68 17.5649Z" fill="#16AD64"/>
<path d="M30 15.3599V19.0499C29.28 18.8399 28.515 18.7499 27.75 18.7499C25.71 18.7499 23.715 19.4549 22.14 20.7149C19.98 22.4099 18.75 24.9749 18.75 27.7499C18.75 28.4849 18.84 29.2199 19.035 29.9249C18.81 29.8949 18.585 29.8049 18.375 29.6699C17.805 29.3249 17.46 28.7099 17.46 28.0349V20.5949C17.46 19.3049 18.18 18.1499 19.32 17.5649L27.195 13.6349C27.81 13.3199 28.5 13.3649 29.085 13.7099C29.655 14.0699 30 14.6849 30 15.3599Z" fill="#16AD64"/>
<path d="M32.97 23.5053C31.74 21.9903 29.865 21.0303 27.75 21.0303C26.16 21.0303 24.69 21.5853 23.535 22.5153C21.975 23.7453 21 25.6503 21 27.7803C21 29.0403 21.36 30.2403 21.975 31.2603C22.38 31.9353 22.89 32.5203 23.49 33.0003H23.505C24.66 33.9603 26.145 34.5303 27.75 34.5303C29.46 34.5303 31.005 33.9003 32.19 32.8503C32.715 32.4003 33.165 31.8603 33.525 31.2603C34.14 30.2403 34.5 29.0403 34.5 27.7803C34.5 26.1603 33.93 24.6603 32.97 23.5053ZM31.14 26.9403L27.54 30.2703C27.33 30.4653 27.045 30.5703 26.775 30.5703C26.49 30.5703 26.205 30.4653 25.98 30.2403L24.315 28.5753C23.88 28.1403 23.88 27.4203 24.315 26.9853C24.75 26.5503 25.47 26.5503 25.905 26.9853L26.805 27.8853L29.61 25.2903C30.06 24.8703 30.78 24.9003 31.2 25.3503C31.635 25.8153 31.605 26.5203 31.14 26.9403Z" fill="#16AD64"/>
</svg>
