<svg width="40" height="40" viewBox="0 0 40 40" fill="none" xmlns="http://www.w3.org/2000/svg">
<g clip-path="url(#clip0_903_17624)">
<path d="M19.0664 14.8534C19.0709 17.8667 19.0931 21.0267 19.1331 24.3334C19.1375 24.96 19.4309 25.2956 20.0131 25.34C20.1284 25.3483 20.2441 25.3328 20.3531 25.2947C20.4621 25.2565 20.5619 25.1964 20.6464 25.1182C20.7309 25.04 20.7982 24.9453 20.8441 24.8401C20.89 24.7349 20.9135 24.6214 20.9131 24.5067V14.82C20.9131 14.4245 21.0597 14.3622 21.3531 14.6334L22.9664 16.16C23.1474 16.3123 23.3795 16.3902 23.6157 16.378C23.8519 16.3658 24.0747 16.2643 24.2389 16.0941C24.4032 15.9239 24.4967 15.6977 24.5006 15.4612C24.5045 15.2246 24.4184 14.9955 24.2597 14.82L20.2731 10.92C20.1937 10.8398 20.0854 10.7948 19.9717 10.7948C19.858 10.7948 19.7482 10.8398 19.6664 10.92L15.6131 14.96C15.4828 15.093 15.4012 15.2662 15.3816 15.4514C15.3619 15.6365 15.4054 15.8229 15.5049 15.9803C15.6045 16.1377 15.7542 16.2569 15.9299 16.3185C16.1056 16.3802 16.297 16.3807 16.4731 16.32C17.3175 16.0178 17.9953 15.4734 18.5064 14.6867C18.543 14.633 18.5958 14.5923 18.6571 14.5705C18.7183 14.5487 18.785 14.5469 18.8473 14.5655C18.9096 14.584 18.9644 14.6219 19.0038 14.6737C19.0432 14.7254 19.0651 14.7883 19.0664 14.8534Z" stroke="#8A8A8A" stroke-width="1.33333"/>
<path d="M12.8466 26.84C12.8155 24.72 12.811 22.6022 12.8333 20.4867C12.8377 20.06 12.7866 19.7422 12.6799 19.5333C12.471 19.1111 12.1133 18.9733 11.6066 19.12C11.4088 19.1754 11.2346 19.294 11.1106 19.4577C10.9866 19.6214 10.9196 19.8213 10.9199 20.0267L10.9266 27.6667C10.9266 28.0398 11.0748 28.3975 11.3386 28.6613C11.6024 28.9251 11.9602 29.0733 12.3333 29.0733L27.3399 29.08C28.5044 29.08 29.0866 28.4956 29.0866 27.3267L29.0799 20.0133C29.0801 19.8371 29.0265 19.6651 28.9263 19.5208C28.8261 19.3765 28.6843 19.2669 28.5199 19.2067C28.0488 19.0333 27.6888 19.0667 27.4399 19.3067C27.271 19.4622 27.1866 19.7422 27.1866 20.1467C27.1777 22.3645 27.1688 24.5933 27.1599 26.8333C27.1599 27.0556 27.0488 27.1667 26.8266 27.1667H13.1799C12.9621 27.1667 12.851 27.0578 12.8466 26.84Z" stroke="#8A8A8A" stroke-width="1.33333"/>
<path d="M18.38 0H21.68C32.2711 1.66222 38.3778 7.79111 40 18.3867V21.6867C38.3289 32.2778 32.2022 38.3822 21.62 40H18.32C7.72 38.3333 1.61333 32.2022 0 21.6067V18.3133C1.66222 7.72222 7.78889 1.61778 18.38 0ZM19.0667 14.8533C19.0711 17.8667 19.0933 21.0267 19.1333 24.3333C19.1378 24.96 19.4311 25.2956 20.0133 25.34C20.1286 25.3483 20.2444 25.3328 20.3534 25.2947C20.4623 25.2565 20.5622 25.1964 20.6467 25.1182C20.7312 25.04 20.7984 24.9453 20.8443 24.8401C20.8902 24.7348 20.9137 24.6213 20.9133 24.5067V14.82C20.9133 14.4244 21.06 14.3622 21.3533 14.6333L22.9667 16.16C23.1476 16.3123 23.3797 16.3902 23.6159 16.378C23.8522 16.3657 24.0749 16.2643 24.2392 16.0941C24.4035 15.9239 24.497 15.6976 24.5008 15.4611C24.5047 15.2246 24.4186 14.9955 24.26 14.82L20.2733 10.92C20.194 10.8398 20.0856 10.7948 19.9719 10.7948C19.8583 10.7948 19.7485 10.8398 19.6667 10.92L15.6133 14.96C15.483 15.093 15.4014 15.2662 15.3818 15.4513C15.3622 15.6365 15.4057 15.8229 15.5052 15.9803C15.6047 16.1377 15.7545 16.2569 15.9302 16.3185C16.1059 16.3802 16.2973 16.3807 16.4733 16.32C17.3178 16.0178 17.9956 15.4733 18.5067 14.6867C18.5433 14.6329 18.5961 14.5922 18.6573 14.5705C18.7186 14.5487 18.7852 14.5469 18.8475 14.5655C18.9099 14.584 18.9647 14.6219 19.0041 14.6736C19.0435 14.7254 19.0654 14.7883 19.0667 14.8533ZM12.8467 26.84C12.8156 24.72 12.8111 22.6022 12.8333 20.4867C12.8378 20.06 12.7867 19.7422 12.68 19.5333C12.4711 19.1111 12.1133 18.9733 11.6067 19.12C11.4089 19.1754 11.2347 19.294 11.1107 19.4577C10.9866 19.6214 10.9197 19.8213 10.92 20.0267L10.9267 27.6667C10.9267 28.0397 11.0749 28.3975 11.3387 28.6613C11.6025 28.9251 11.9603 29.0733 12.3333 29.0733L27.34 29.08C28.5044 29.08 29.0867 28.4956 29.0867 27.3267L29.08 20.0133C29.0802 19.837 29.0265 19.6651 28.9264 19.5208C28.8262 19.3765 28.6843 19.2669 28.52 19.2067C28.0489 19.0333 27.6889 19.0667 27.44 19.3067C27.2711 19.4622 27.1867 19.7422 27.1867 20.1467C27.1778 22.3644 27.1689 24.5933 27.16 26.8333C27.16 27.0556 27.0489 27.1667 26.8267 27.1667H13.18C12.9622 27.1667 12.8511 27.0578 12.8467 26.84Z" fill="#4B4B4B"/>
<path d="M19.0664 14.8534C19.0651 14.7883 19.0432 14.7254 19.0038 14.6737C18.9644 14.6219 18.9096 14.584 18.8473 14.5655C18.785 14.5469 18.7183 14.5487 18.6571 14.5705C18.5958 14.5923 18.543 14.633 18.5064 14.6867C17.9953 15.4734 17.3175 16.0178 16.4731 16.32C16.297 16.3807 16.1056 16.3802 15.9299 16.3185C15.7542 16.2569 15.6045 16.1377 15.5049 15.9803C15.4054 15.8229 15.3619 15.6365 15.3816 15.4514C15.4012 15.2662 15.4828 15.093 15.6131 14.96L19.6664 10.92C19.7482 10.8398 19.858 10.7948 19.9717 10.7948C20.0854 10.7948 20.1937 10.8398 20.2731 10.92L24.2597 14.82C24.4184 14.9955 24.5045 15.2246 24.5006 15.4612C24.4967 15.6977 24.4032 15.9239 24.2389 16.0941C24.0747 16.2643 23.8519 16.3658 23.6157 16.378C23.3795 16.3902 23.1474 16.3123 22.9664 16.16L21.3531 14.6334C21.0597 14.3622 20.9131 14.4245 20.9131 14.82V24.5067C20.9135 24.6214 20.89 24.7349 20.8441 24.8401C20.7982 24.9453 20.7309 25.04 20.6464 25.1182C20.5619 25.1964 20.4621 25.2565 20.3531 25.2947C20.2441 25.3328 20.1284 25.3483 20.0131 25.34C19.4309 25.2956 19.1375 24.96 19.1331 24.3334C19.0931 21.0267 19.0709 17.8667 19.0664 14.8534Z" fill="white"/>
<path d="M13.1799 27.1667H26.8266C27.0488 27.1667 27.1599 27.0556 27.1599 26.8333C27.1688 24.5933 27.1777 22.3645 27.1866 20.1467C27.1866 19.7422 27.271 19.4622 27.4399 19.3067C27.6888 19.0667 28.0488 19.0333 28.5199 19.2067C28.6843 19.2669 28.8261 19.3765 28.9263 19.5208C29.0265 19.6651 29.0801 19.8371 29.0799 20.0133L29.0866 27.3267C29.0866 28.4956 28.5044 29.08 27.3399 29.08L12.3333 29.0733C11.9602 29.0733 11.6024 28.9251 11.3386 28.6613C11.0748 28.3975 10.9266 28.0398 10.9266 27.6667L10.9199 20.0267C10.9196 19.8213 10.9866 19.6214 11.1106 19.4577C11.2346 19.294 11.4088 19.1754 11.6066 19.12C12.1133 18.9733 12.471 19.1111 12.6799 19.5333C12.7866 19.7422 12.8377 20.06 12.8333 20.4867C12.811 22.6022 12.8155 24.72 12.8466 26.84C12.851 27.0578 12.9621 27.1667 13.1799 27.1667Z" fill="white"/>
</g>
<defs>
<clipPath id="clip0_903_17624">
<rect width="40" height="40" fill="white"/>
</clipPath>
</defs>
</svg>
