<svg width="40" height="40" viewBox="0 0 40 40" fill="none" xmlns="http://www.w3.org/2000/svg">
<rect width="40" height="40" rx="20" fill="#10BA18"/>
<path d="M29.9803 19.4104C29.6403 13.6104 24.3703 9.14045 18.3003 10.1405C14.1203 10.8305 10.7703 14.2204 10.1203 18.4004C9.74029 20.8204 10.2403 23.1104 11.3303 25.0004L10.4403 28.3104C10.2403 29.0604 10.9303 29.7404 11.6703 29.5304L14.9303 28.6304C16.4103 29.5004 18.1403 30.0004 19.9903 30.0004C25.6303 30.0004 30.3103 25.0304 29.9803 19.4104ZM24.8803 23.7204C24.7903 23.9004 24.6803 24.0704 24.5403 24.2304C24.2903 24.5004 24.0203 24.7004 23.7203 24.8204C23.4203 24.9504 23.0903 25.0104 22.7403 25.0104C22.2303 25.0104 21.6803 24.8905 21.1103 24.6405C20.5303 24.3905 19.9603 24.0604 19.3903 23.6504C18.8103 23.2304 18.2703 22.7604 17.7503 22.2504C17.2303 21.7304 16.7703 21.1804 16.3503 20.6104C15.9403 20.0404 15.6103 19.4704 15.3703 18.9004C15.1303 18.3304 15.0103 17.7804 15.0103 17.2604C15.0103 16.9204 15.0703 16.5904 15.1903 16.2904C15.3103 15.9804 15.5003 15.7004 15.7703 15.4504C16.0903 15.1304 16.4403 14.9804 16.8103 14.9804C16.9503 14.9804 17.0903 15.0104 17.2203 15.0704C17.3503 15.1304 17.4703 15.2204 17.5603 15.3504L18.7203 16.9904C18.8103 17.1204 18.8803 17.2304 18.9203 17.3404C18.9703 17.4504 18.9903 17.5504 18.9903 17.6504C18.9903 17.7704 18.9503 17.8904 18.8803 18.0104C18.8103 18.1304 18.7203 18.2504 18.6003 18.3704L18.2203 18.7704C18.1603 18.8304 18.1403 18.8904 18.1403 18.9704C18.1403 19.0104 18.1503 19.0504 18.1603 19.0904C18.1803 19.1304 18.1903 19.1604 18.2003 19.1904C18.2903 19.3604 18.4503 19.5704 18.6703 19.8304C18.9003 20.0904 19.1403 20.3604 19.4003 20.6204C19.6703 20.8904 19.9303 21.1304 20.2003 21.3604C20.4603 21.5804 20.6803 21.7304 20.8503 21.8204C20.8803 21.8304 20.9103 21.8504 20.9403 21.8604C20.9803 21.8804 21.0203 21.8804 21.0703 21.8804C21.1603 21.8804 21.2203 21.8504 21.2803 21.7904L21.6603 21.4104C21.7903 21.2804 21.9103 21.1904 22.0203 21.1304C22.1403 21.0604 22.2503 21.0204 22.3803 21.0204C22.4803 21.0204 22.5803 21.0404 22.6903 21.0904C22.8003 21.1404 22.9203 21.2004 23.0403 21.2904L24.7003 22.4704C24.8303 22.5604 24.9203 22.6704 24.9803 22.7904C25.0303 22.9204 25.0603 23.0404 25.0603 23.1804C25.0003 23.3504 24.9603 23.5404 24.8803 23.7204Z" fill="white"/>
</svg>
